<?xml version="1.0" encoding="utf-8" standalone="no"?>
<!DOCTYPE svg PUBLIC "-//W3C//DTD SVG 1.1//EN"
  "http://www.w3.org/Graphics/SVG/1.1/DTD/svg11.dtd">
<svg xmlns:xlink="http://www.w3.org/1999/xlink" width="570.24pt" height="220.608pt" viewBox="0 0 570.24 220.608" xmlns="http://www.w3.org/2000/svg" version="1.1">
 <metadata>
  <rdf:RDF xmlns:dc="http://purl.org/dc/elements/1.1/" xmlns:cc="http://creativecommons.org/ns#" xmlns:rdf="http://www.w3.org/1999/02/22-rdf-syntax-ns#">
   <cc:Work>
    <dc:type rdf:resource="http://purl.org/dc/dcmitype/StillImage"/>
    <dc:date>2024-11-10T11:16:46.895647</dc:date>
    <dc:format>image/svg+xml</dc:format>
    <dc:creator>
     <cc:Agent>
      <dc:title>Matplotlib v3.8.2, https://matplotlib.org/</dc:title>
     </cc:Agent>
    </dc:creator>
   </cc:Work>
  </rdf:RDF>
 </metadata>
 <defs>
  <style type="text/css">*{stroke-linejoin: round; stroke-linecap: butt}</style>
 </defs>
 <g id="figure_1">
  <g id="patch_1">
   <path d="M 0 220.608 
L 570.24 220.608 
L 570.24 0 
L 0 0 
z
" style="fill: #ffffff"/>
  </g>
  <g id="axes_1">
   <g id="patch_2">
    <path d="M 71.28 196.34112 
L 513.216 196.34112 
L 513.216 26.47296 
L 71.28 26.47296 
z
" style="fill: #ffffff"/>
   </g>
   <g id="matplotlib.axis_1">
    <g id="xtick_1">
     <g id="line2d_1">
      <defs>
       <path id="md4d0653ccd" d="M 0 0 
L 0 3.5 
" style="stroke: #000000; stroke-width: 0.8"/>
      </defs>
      <g>
       <use xlink:href="#md4d0653ccd" x="124.612027" y="196.34112" style="stroke: #000000; stroke-width: 0.8"/>
      </g>
     </g>
     <g id="text_1">
      <!-- 2004 -->
      <g transform="translate(111.887027 210.939558) scale(0.1 -0.1)">
       <defs>
        <path id="DejaVuSans-32" d="M 1228 531 
L 3431 531 
L 3431 0 
L 469 0 
L 469 531 
Q 828 903 1448 1529 
Q 2069 2156 2228 2338 
Q 2531 2678 2651 2914 
Q 2772 3150 2772 3378 
Q 2772 3750 2511 3984 
Q 2250 4219 1831 4219 
Q 1534 4219 1204 4116 
Q 875 4013 500 3803 
L 500 4441 
Q 881 4594 1212 4672 
Q 1544 4750 1819 4750 
Q 2544 4750 2975 4387 
Q 3406 4025 3406 3419 
Q 3406 3131 3298 2873 
Q 3191 2616 2906 2266 
Q 2828 2175 2409 1742 
Q 1991 1309 1228 531 
z
" transform="scale(0.015625)"/>
        <path id="DejaVuSans-30" d="M 2034 4250 
Q 1547 4250 1301 3770 
Q 1056 3291 1056 2328 
Q 1056 1369 1301 889 
Q 1547 409 2034 409 
Q 2525 409 2770 889 
Q 3016 1369 3016 2328 
Q 3016 3291 2770 3770 
Q 2525 4250 2034 4250 
z
M 2034 4750 
Q 2819 4750 3233 4129 
Q 3647 3509 3647 2328 
Q 3647 1150 3233 529 
Q 2819 -91 2034 -91 
Q 1250 -91 836 529 
Q 422 1150 422 2328 
Q 422 3509 836 4129 
Q 1250 4750 2034 4750 
z
" transform="scale(0.015625)"/>
        <path id="DejaVuSans-34" d="M 2419 4116 
L 825 1625 
L 2419 1625 
L 2419 4116 
z
M 2253 4666 
L 3047 4666 
L 3047 1625 
L 3713 1625 
L 3713 1100 
L 3047 1100 
L 3047 0 
L 2419 0 
L 2419 1100 
L 313 1100 
L 313 1709 
L 2253 4666 
z
" transform="scale(0.015625)"/>
       </defs>
       <use xlink:href="#DejaVuSans-32"/>
       <use xlink:href="#DejaVuSans-30" x="63.623047"/>
       <use xlink:href="#DejaVuSans-30" x="127.246094"/>
       <use xlink:href="#DejaVuSans-34" x="190.869141"/>
      </g>
     </g>
    </g>
    <g id="xtick_2">
     <g id="line2d_2">
      <g>
       <use xlink:href="#md4d0653ccd" x="195.331467" y="196.34112" style="stroke: #000000; stroke-width: 0.8"/>
      </g>
     </g>
     <g id="text_2">
      <!-- 2008 -->
      <g transform="translate(182.606467 210.939558) scale(0.1 -0.1)">
       <defs>
        <path id="DejaVuSans-38" d="M 2034 2216 
Q 1584 2216 1326 1975 
Q 1069 1734 1069 1313 
Q 1069 891 1326 650 
Q 1584 409 2034 409 
Q 2484 409 2743 651 
Q 3003 894 3003 1313 
Q 3003 1734 2745 1975 
Q 2488 2216 2034 2216 
z
M 1403 2484 
Q 997 2584 770 2862 
Q 544 3141 544 3541 
Q 544 4100 942 4425 
Q 1341 4750 2034 4750 
Q 2731 4750 3128 4425 
Q 3525 4100 3525 3541 
Q 3525 3141 3298 2862 
Q 3072 2584 2669 2484 
Q 3125 2378 3379 2068 
Q 3634 1759 3634 1313 
Q 3634 634 3220 271 
Q 2806 -91 2034 -91 
Q 1263 -91 848 271 
Q 434 634 434 1313 
Q 434 1759 690 2068 
Q 947 2378 1403 2484 
z
M 1172 3481 
Q 1172 3119 1398 2916 
Q 1625 2713 2034 2713 
Q 2441 2713 2670 2916 
Q 2900 3119 2900 3481 
Q 2900 3844 2670 4047 
Q 2441 4250 2034 4250 
Q 1625 4250 1398 4047 
Q 1172 3844 1172 3481 
z
" transform="scale(0.015625)"/>
       </defs>
       <use xlink:href="#DejaVuSans-32"/>
       <use xlink:href="#DejaVuSans-30" x="63.623047"/>
       <use xlink:href="#DejaVuSans-30" x="127.246094"/>
       <use xlink:href="#DejaVuSans-38" x="190.869141"/>
      </g>
     </g>
    </g>
    <g id="xtick_3">
     <g id="line2d_3">
      <g>
       <use xlink:href="#md4d0653ccd" x="266.050908" y="196.34112" style="stroke: #000000; stroke-width: 0.8"/>
      </g>
     </g>
     <g id="text_3">
      <!-- 2012 -->
      <g transform="translate(253.325908 210.939558) scale(0.1 -0.1)">
       <defs>
        <path id="DejaVuSans-31" d="M 794 531 
L 1825 531 
L 1825 4091 
L 703 3866 
L 703 4441 
L 1819 4666 
L 2450 4666 
L 2450 531 
L 3481 531 
L 3481 0 
L 794 0 
L 794 531 
z
" transform="scale(0.015625)"/>
       </defs>
       <use xlink:href="#DejaVuSans-32"/>
       <use xlink:href="#DejaVuSans-30" x="63.623047"/>
       <use xlink:href="#DejaVuSans-31" x="127.246094"/>
       <use xlink:href="#DejaVuSans-32" x="190.869141"/>
      </g>
     </g>
    </g>
    <g id="xtick_4">
     <g id="line2d_4">
      <g>
       <use xlink:href="#md4d0653ccd" x="336.770349" y="196.34112" style="stroke: #000000; stroke-width: 0.8"/>
      </g>
     </g>
     <g id="text_4">
      <!-- 2016 -->
      <g transform="translate(324.045349 210.939558) scale(0.1 -0.1)">
       <defs>
        <path id="DejaVuSans-36" d="M 2113 2584 
Q 1688 2584 1439 2293 
Q 1191 2003 1191 1497 
Q 1191 994 1439 701 
Q 1688 409 2113 409 
Q 2538 409 2786 701 
Q 3034 994 3034 1497 
Q 3034 2003 2786 2293 
Q 2538 2584 2113 2584 
z
M 3366 4563 
L 3366 3988 
Q 3128 4100 2886 4159 
Q 2644 4219 2406 4219 
Q 1781 4219 1451 3797 
Q 1122 3375 1075 2522 
Q 1259 2794 1537 2939 
Q 1816 3084 2150 3084 
Q 2853 3084 3261 2657 
Q 3669 2231 3669 1497 
Q 3669 778 3244 343 
Q 2819 -91 2113 -91 
Q 1303 -91 875 529 
Q 447 1150 447 2328 
Q 447 3434 972 4092 
Q 1497 4750 2381 4750 
Q 2619 4750 2861 4703 
Q 3103 4656 3366 4563 
z
" transform="scale(0.015625)"/>
       </defs>
       <use xlink:href="#DejaVuSans-32"/>
       <use xlink:href="#DejaVuSans-30" x="63.623047"/>
       <use xlink:href="#DejaVuSans-31" x="127.246094"/>
       <use xlink:href="#DejaVuSans-36" x="190.869141"/>
      </g>
     </g>
    </g>
    <g id="xtick_5">
     <g id="line2d_5">
      <g>
       <use xlink:href="#md4d0653ccd" x="407.48979" y="196.34112" style="stroke: #000000; stroke-width: 0.8"/>
      </g>
     </g>
     <g id="text_5">
      <!-- 2020 -->
      <g transform="translate(394.76479 210.939558) scale(0.1 -0.1)">
       <use xlink:href="#DejaVuSans-32"/>
       <use xlink:href="#DejaVuSans-30" x="63.623047"/>
       <use xlink:href="#DejaVuSans-32" x="127.246094"/>
       <use xlink:href="#DejaVuSans-30" x="190.869141"/>
      </g>
     </g>
    </g>
    <g id="xtick_6">
     <g id="line2d_6">
      <g>
       <use xlink:href="#md4d0653ccd" x="478.209231" y="196.34112" style="stroke: #000000; stroke-width: 0.8"/>
      </g>
     </g>
     <g id="text_6">
      <!-- 2024 -->
      <g transform="translate(465.484231 210.939558) scale(0.1 -0.1)">
       <use xlink:href="#DejaVuSans-32"/>
       <use xlink:href="#DejaVuSans-30" x="63.623047"/>
       <use xlink:href="#DejaVuSans-32" x="127.246094"/>
       <use xlink:href="#DejaVuSans-34" x="190.869141"/>
      </g>
     </g>
    </g>
   </g>
   <g id="matplotlib.axis_2">
    <g id="ytick_1">
     <g id="line2d_7">
      <defs>
       <path id="m83a5bd12ea" d="M 0 0 
L -3.5 0 
" style="stroke: #000000; stroke-width: 0.8"/>
      </defs>
      <g>
       <use xlink:href="#m83a5bd12ea" x="71.28" y="189.67438" style="stroke: #000000; stroke-width: 0.8"/>
      </g>
     </g>
     <g id="text_7">
      <!-- 0 -->
      <g transform="translate(57.9175 193.473599) scale(0.1 -0.1)">
       <use xlink:href="#DejaVuSans-30"/>
      </g>
     </g>
    </g>
    <g id="ytick_2">
     <g id="line2d_8">
      <g>
       <use xlink:href="#m83a5bd12ea" x="71.28" y="156.916719" style="stroke: #000000; stroke-width: 0.8"/>
      </g>
     </g>
     <g id="text_8">
      <!-- 20 -->
      <g transform="translate(51.555 160.715938) scale(0.1 -0.1)">
       <use xlink:href="#DejaVuSans-32"/>
       <use xlink:href="#DejaVuSans-30" x="63.623047"/>
      </g>
     </g>
    </g>
    <g id="ytick_3">
     <g id="line2d_9">
      <g>
       <use xlink:href="#m83a5bd12ea" x="71.28" y="124.159058" style="stroke: #000000; stroke-width: 0.8"/>
      </g>
     </g>
     <g id="text_9">
      <!-- 40 -->
      <g transform="translate(51.555 127.958277) scale(0.1 -0.1)">
       <use xlink:href="#DejaVuSans-34"/>
       <use xlink:href="#DejaVuSans-30" x="63.623047"/>
      </g>
     </g>
    </g>
    <g id="ytick_4">
     <g id="line2d_10">
      <g>
       <use xlink:href="#m83a5bd12ea" x="71.28" y="91.401397" style="stroke: #000000; stroke-width: 0.8"/>
      </g>
     </g>
     <g id="text_10">
      <!-- 60 -->
      <g transform="translate(51.555 95.200616) scale(0.1 -0.1)">
       <use xlink:href="#DejaVuSans-36"/>
       <use xlink:href="#DejaVuSans-30" x="63.623047"/>
      </g>
     </g>
    </g>
    <g id="ytick_5">
     <g id="line2d_11">
      <g>
       <use xlink:href="#m83a5bd12ea" x="71.28" y="58.643736" style="stroke: #000000; stroke-width: 0.8"/>
      </g>
     </g>
     <g id="text_11">
      <!-- 80 -->
      <g transform="translate(51.555 62.442955) scale(0.1 -0.1)">
       <use xlink:href="#DejaVuSans-38"/>
       <use xlink:href="#DejaVuSans-30" x="63.623047"/>
      </g>
     </g>
    </g>
    <g id="text_12">
     <!-- Ціна, $ -->
     <g transform="translate(18.591719 109.327352) scale(0.1 -0.1)">
      <defs>
       <path id="DejaVuSans-426" d="M 4184 0 
L 628 0 
L 628 4666 
L 1259 4666 
L 1259 531 
L 3553 531 
L 3553 4666 
L 4184 4666 
L 4184 531 
L 4716 531 
L 4716 -1003 
L 4184 -1003 
L 4184 0 
z
" transform="scale(0.015625)"/>
       <path id="DejaVuSans-456" d="M 603 3500 
L 1178 3500 
L 1178 0 
L 603 0 
L 603 3500 
z
M 603 4863 
L 1178 4863 
L 1178 4134 
L 603 4134 
L 603 4863 
z
" transform="scale(0.015625)"/>
       <path id="DejaVuSans-43d" d="M 581 3500 
L 1159 3500 
L 1159 2072 
L 3025 2072 
L 3025 3500 
L 3603 3500 
L 3603 0 
L 3025 0 
L 3025 1613 
L 1159 1613 
L 1159 0 
L 581 0 
L 581 3500 
z
" transform="scale(0.015625)"/>
       <path id="DejaVuSans-430" d="M 2194 1759 
Q 1497 1759 1228 1600 
Q 959 1441 959 1056 
Q 959 750 1161 570 
Q 1363 391 1709 391 
Q 2188 391 2477 730 
Q 2766 1069 2766 1631 
L 2766 1759 
L 2194 1759 
z
M 3341 1997 
L 3341 0 
L 2766 0 
L 2766 531 
Q 2569 213 2275 61 
Q 1981 -91 1556 -91 
Q 1019 -91 701 211 
Q 384 513 384 1019 
Q 384 1609 779 1909 
Q 1175 2209 1959 2209 
L 2766 2209 
L 2766 2266 
Q 2766 2663 2505 2880 
Q 2244 3097 1772 3097 
Q 1472 3097 1187 3025 
Q 903 2953 641 2809 
L 641 3341 
Q 956 3463 1253 3523 
Q 1550 3584 1831 3584 
Q 2591 3584 2966 3190 
Q 3341 2797 3341 1997 
z
" transform="scale(0.015625)"/>
       <path id="DejaVuSans-2c" d="M 750 794 
L 1409 794 
L 1409 256 
L 897 -744 
L 494 -744 
L 750 256 
L 750 794 
z
" transform="scale(0.015625)"/>
       <path id="DejaVuSans-20" transform="scale(0.015625)"/>
       <path id="DejaVuSans-24" d="M 2163 -941 
L 1850 -941 
L 1847 0 
Q 1519 6 1191 76 
Q 863 147 531 288 
L 531 850 
Q 850 650 1176 548 
Q 1503 447 1850 444 
L 1850 1869 
Q 1159 1981 845 2250 
Q 531 2519 531 2988 
Q 531 3497 872 3790 
Q 1213 4084 1850 4128 
L 1850 4863 
L 2163 4863 
L 2163 4138 
Q 2453 4125 2725 4076 
Q 2997 4028 3256 3944 
L 3256 3397 
Q 2997 3528 2723 3600 
Q 2450 3672 2163 3684 
L 2163 2350 
Q 2872 2241 3206 1959 
Q 3541 1678 3541 1191 
Q 3541 663 3186 358 
Q 2831 53 2163 6 
L 2163 -941 
z
M 1850 2406 
L 1850 3688 
Q 1488 3647 1297 3481 
Q 1106 3316 1106 3041 
Q 1106 2772 1282 2622 
Q 1459 2472 1850 2406 
z
M 2163 1806 
L 2163 453 
Q 2559 506 2761 678 
Q 2963 850 2963 1131 
Q 2963 1406 2770 1568 
Q 2578 1731 2163 1806 
z
" transform="scale(0.015625)"/>
      </defs>
      <use xlink:href="#DejaVuSans-426"/>
      <use xlink:href="#DejaVuSans-456" x="77.636719"/>
      <use xlink:href="#DejaVuSans-43d" x="105.419922"/>
      <use xlink:href="#DejaVuSans-430" x="170.800781"/>
      <use xlink:href="#DejaVuSans-2c" x="232.080078"/>
      <use xlink:href="#DejaVuSans-20" x="263.867188"/>
      <use xlink:href="#DejaVuSans-24" x="295.654297"/>
     </g>
    </g>
   </g>
   <g id="line2d_12">
    <path d="M 91.368 187.020799 
L 91.416405 186.869166 
L 91.46481 186.917412 
L 92.432906 187.007014 
L 92.481311 186.876059 
L 92.820145 186.779564 
L 93.013764 186.993229 
L 93.110573 187.190352 
L 93.158978 187.089723 
L 93.449407 186.848489 
L 93.643027 186.91052 
L 93.788241 187.117292 
L 93.836646 187.062153 
L 94.318677 187.16554 
L 94.512296 186.943605 
L 94.705916 186.924305 
L 94.85113 187.013907 
L 95.093154 187.013907 
L 95.189964 186.807134 
L 95.335178 186.808512 
L 95.528798 186.503868 
L 95.770822 186.820919 
L 95.819227 186.938091 
L 95.867631 186.814026 
L 96.012846 186.747859 
L 96.061251 186.559007 
L 96.109655 186.854002 
L 96.15806 186.745103 
L 96.206465 186.594847 
L 96.448489 186.337071 
L 96.496894 186.421158 
L 96.545299 186.468027 
L 96.690513 186.339829 
L 96.835728 186.469406 
L 97.174561 186.586577 
L 97.222966 186.512139 
L 97.707014 186.779564 
L 97.852229 187.041476 
L 97.900634 186.924305 
L 98.045848 186.793349 
L 98.239467 187.1104 
L 98.529896 187.048369 
L 98.86873 187.4564 
L 99.159159 187.496376 
L 99.207564 187.248248 
L 99.255969 187.332336 
L 99.546398 187.275818 
L 99.740017 187.59287 
L 99.885231 187.496376 
L 99.933636 187.620439 
L 100.078851 187.573571 
L 100.27247 187.179324 
L 100.417684 187.06491 
L 100.562899 186.751995 
L 100.756518 186.950496 
L 100.950137 186.696855 
L 101.192161 186.889843 
L 101.240566 187.124186 
L 101.288971 187.020799 
L 101.530995 186.834703 
L 101.5794 186.772672 
L 101.627805 186.889843 
L 101.773019 186.971174 
L 101.918234 186.889843 
L 101.966639 186.797485 
L 102.257067 186.944982 
L 102.450687 186.740967 
L 102.644306 187.015285 
L 102.88633 187.082831 
L 102.934735 187.262033 
L 102.98314 187.136591 
L 103.128354 187.12832 
L 103.273569 186.958767 
L 103.467188 186.867787 
L 103.515593 187.165539 
L 103.563998 187.035961 
L 103.660807 186.876058 
L 103.808039 186.848489 
L 103.953253 187.172432 
L 104.146872 187.209652 
L 104.340492 187.128321 
L 104.485706 187.317173 
L 104.534111 187.268926 
L 104.82454 186.79335 
L 104.921349 187.041476 
L 104.969754 187.000122 
L 105.018159 186.994608 
L 105.260183 187.110401 
L 105.502207 187.055261 
L 105.647422 187.075938 
L 105.695827 187.034584 
L 106.03466 187.234464 
L 106.276684 187.813427 
L 106.373494 188.364821 
L 107.051161 188.330358 
L 107.389995 188.213187 
L 107.632019 188.31106 
L 107.728829 188.371713 
L 108.406496 188.451665 
L 109.084164 188.578485 
L 109.665022 188.261434 
L 109.761831 188.254542 
L 111.117166 188.020199 
L 111.456 188.000901 
L 111.696007 187.923706 
L 111.792817 187.923706 
L 113.051342 188.006414 
L 113.099747 187.857538 
L 113.148152 187.878216 
L 113.6322 187.896136 
L 113.825819 188.075339 
L 115.03594 187.840997 
L 115.132749 187.762423 
L 115.181154 187.809291 
L 115.519988 187.890622 
L 115.713607 187.875459 
L 116.391275 187.675579 
L 116.536489 187.813427 
L 117.55299 187.857538 
L 117.843419 187.889243 
L 118.182253 187.648009 
L 118.230658 187.461914 
L 119.150349 187.255141 
L 119.392373 187.357149 
L 119.537588 187.310281 
L 119.876422 187.416424 
L 120.070041 187.434344 
L 120.602494 187.255141 
L 120.747708 187.275819 
L 120.892923 187.069046 
L 121.134947 187.186217 
L 121.231757 187.303388 
L 121.427393 187.446751 
L 121.572607 187.296496 
L 121.863036 187.468806 
L 121.959846 187.33785 
L 122.492299 187.468806 
L 122.540704 187.551515 
L 122.589108 187.517053 
L 122.637513 187.410909 
L 123.218371 187.551516 
L 123.654014 187.579085 
L 123.799229 187.552893 
L 123.847634 187.675579 
L 123.944443 187.634224 
L 124.138063 187.579085 
L 124.476896 187.584599 
L 124.670516 187.496376 
L 124.81573 187.573571 
L 125.009349 187.172433 
L 126.364684 187.372312 
L 126.703518 187.248249 
L 126.897137 187.300631 
L 126.993947 187.131077 
L 127.042352 187.19311 
L 127.962043 187.228951 
L 128.058853 187.330958 
L 128.252472 187.251006 
L 128.397687 187.354392 
L 129.60579 187.131077 
L 129.654195 187.227571 
L 129.7026 187.186217 
L 130.089839 187.117293 
L 132.122841 187.551515 
L 132.41327 187.457778 
L 133.381366 187.602519 
L 133.478176 187.620439 
L 134.978725 187.562543 
L 135.12394 187.585977 
L 135.172345 187.634224 
L 135.753202 187.467427 
L 135.850012 187.282711 
L 136.33406 187.339228 
L 136.52768 187.289604 
L 137.205347 187.202758 
L 137.495776 187.16554 
L 137.544181 187.209651 
L 138.076634 186.944983 
L 138.125039 186.895356 
L 138.173443 187.000122 
L 138.367063 187.081452 
L 138.463872 187.013907 
L 138.512277 187.075938 
L 138.560682 187.126943 
L 138.899516 186.995986 
L 139.14154 186.986336 
L 139.238349 186.93809 
L 139.530795 186.92844 
L 139.724414 186.531438 
L 139.772819 186.524545 
L 139.918034 186.696856 
L 140.111653 186.490083 
L 140.256867 186.717533 
L 140.498892 186.800242 
L 140.740916 186.641716 
L 140.934535 186.793349 
L 142.096251 186.681692 
L 142.144655 186.734074 
L 142.28987 186.572792 
L 142.435084 186.51076 
L 142.628704 186.931198 
L 142.967537 187.062153 
L 144.855325 186.982201 
L 145.00054 187.117294 
L 145.581398 186.842974 
L 145.871827 186.96566 
L 146.017041 186.745102 
L 146.162255 186.776807 
L 146.21066 186.90225 
L 146.259065 186.779565 
L 146.30747 186.614146 
L 146.549494 186.499732 
L 146.694708 186.585198 
L 146.98312 186.66515 
L 147.17674 186.662393 
L 147.370359 186.791971 
L 147.515573 186.724426 
L 147.612383 186.366019 
L 147.660788 186.425294 
L 148.38686 186.13857 
L 148.967718 186.048968 
L 149.064528 185.800841 
L 149.209742 185.787055 
L 149.258147 185.545822 
L 149.306552 185.566499 
L 149.354957 185.727782 
L 149.403361 185.538928 
L 149.742195 185.504468 
L 149.88741 185.37351 
L 149.935814 185.118491 
L 149.984219 185.195686 
L 150.032624 185.25634 
L 150.081029 185.159846 
L 150.323053 185.210851 
L 150.371458 184.988915 
L 150.419863 185.115735 
L 150.613482 185.214986 
L 150.661887 185.25634 
L 150.710292 185.187416 
L 151.387959 185.041296 
L 151.629983 184.739409 
L 151.775198 184.794548 
L 152.259246 184.932396 
L 152.307651 185.035782 
L 152.356055 184.91861 
L 152.452865 184.790413 
L 152.985318 185.224636 
L 153.082128 185.133655 
L 153.420961 185.6561 
L 153.469366 185.208094 
L 153.71139 184.877258 
L 153.759795 184.918611 
L 154.340653 184.953075 
L 154.437463 184.69254 
L 154.485867 184.711839 
L 155.01832 184.707703 
L 155.163535 185.070246 
L 155.308749 184.987536 
L 155.357154 185.081272 
L 155.502369 185.249447 
L 155.695988 185.385918 
L 155.744393 185.194308 
L 155.792798 185.275639 
L 155.841202 185.36662 
L 156.083227 185.421759 
L 156.131631 185.538929 
L 156.180036 185.435543 
L 156.325251 185.407973 
L 156.51887 184.966858 
L 156.664084 184.918612 
L 156.712489 184.608453 
L 156.760894 184.744922 
L 156.857704 185.05646 
L 157.392173 184.578125 
L 157.537388 184.622237 
L 157.827817 184.73941 
L 157.876222 184.608453 
L 158.021436 184.600182 
L 158.069841 184.463712 
L 158.118246 184.629131 
L 158.215055 184.733895 
L 158.36027 184.60156 
L 158.505484 185.037161 
L 158.747508 184.808333 
L 159.57039 185.46449 
L 159.860819 185.329399 
L 160.151248 185.219122 
L 160.248058 184.505066 
L 160.441677 184.436142 
L 160.538487 184.305186 
L 160.586892 184.39203 
L 160.87732 184.436143 
L 160.925725 184.332755 
L 161.167749 184.415464 
L 161.506583 184.117712 
L 161.603393 183.850287 
L 161.797012 183.733117 
L 161.942227 184.109443 
L 162.184251 184.087385 
L 162.28106 183.905427 
L 162.861918 184.154932 
L 162.910323 184.077737 
L 162.958728 184.160446 
L 163.200752 184.188015 
L 163.297561 184.429251 
L 163.491181 184.281753 
L 163.636395 184.091522 
L 163.78161 184.029489 
L 163.926824 183.478097 
L 164.120443 183.250645 
L 164.265658 183.194129 
L 164.45726 183.176208 
L 164.505665 183.269945 
L 164.65088 182.912917 
L 164.796094 182.921189 
L 164.941308 183.19275 
L 165.280142 183.194131 
L 165.328547 183.110041 
L 165.570571 183.201022 
L 165.95781 183.025955 
L 166.006214 183.137611 
L 166.151429 183.05766 
L 166.199834 183.152774 
L 166.296643 183.261675 
L 166.490263 183.712437 
L 166.635477 183.159667 
L 166.683882 183.388495 
L 166.974311 183.789634 
L 167.022716 183.661436 
L 167.313145 183.753793 
L 167.361549 183.607675 
L 167.506764 183.715196 
L 167.651978 184.022597 
L 167.845598 183.964701 
L 167.894002 184.160445 
L 167.990812 184.131498 
L 168.039217 184.073601 
L 168.232836 184.456818 
L 168.281241 184.616724 
L 168.378051 184.567098 
L 168.523265 184.471983 
L 168.57167 184.546421 
L 168.620075 184.589153 
L 168.862099 184.095656 
L 169.346147 184.586398 
L 169.394552 184.287265 
L 169.636576 184.237642 
L 169.684981 184.032247 
L 169.733386 184.332756 
L 169.8786 184.436143 
L 170.023814 184.008813 
L 170.072219 184.029489 
L 170.217434 183.854423 
L 170.265839 183.953673 
L 170.314243 184.015704 
L 170.411053 183.460177 
L 170.556267 183.581481 
L 170.604672 183.461555 
L 170.653077 183.505666 
L 170.701482 183.671086 
L 170.895101 183.216186 
L 171.040316 183.733114 
L 171.08872 183.442257 
L 171.572769 183.905426 
L 171.766388 183.63938 
L 172.056817 183.682114 
L 172.105222 183.533236 
L 172.298841 183.388493 
L 172.395651 183.092121 
L 172.444055 183.105905 
L 172.68608 183.112798 
L 172.734484 182.816424 
L 172.782889 182.940488 
L 172.928104 183.126582 
L 172.976508 183.043875 
L 173.024913 183.025953 
L 173.121723 183.22997 
L 173.363747 183.151395 
L 173.460557 183.025953 
L 173.605771 183.126581 
L 173.944605 182.499374 
L 174.283439 182.644114 
L 174.331843 182.542106 
L 174.380248 182.685467 
L 174.428653 182.764044 
L 174.477058 182.566918 
L 174.721099 182.616542 
L 174.769504 182.823316 
L 174.963123 182.265032 
L 175.156742 182.506265 
L 175.64079 182.331198 
L 175.689195 182.685467 
L 175.7376 182.328439 
L 175.979624 181.865269 
L 176.076434 182.140967 
L 176.124839 182.065152 
L 176.173243 181.968655 
L 176.318458 182.037582 
L 176.463672 181.752234 
L 176.512077 181.772911 
L 176.705696 181.789456 
L 176.802506 181.919031 
L 176.850911 181.818401 
L 176.996125 181.8377 
L 177.14134 182.078934 
L 177.189745 182.033446 
L 177.431769 182.065149 
L 177.528578 182.01001 
L 177.867412 182.0362 
L 178.012627 182.023796 
L 178.061031 182.154753 
L 178.206246 181.675039 
L 178.496675 181.748098 
L 178.738699 182.09272 
L 178.835508 181.967278 
L 179.029128 182.471803 
L 179.222747 182.218164 
L 179.416366 182.351875 
L 179.561581 182.349118 
L 179.85201 182.127184 
L 179.900414 182.267789 
L 180.142439 182.25538 
L 180.190843 182.048611 
L 180.239248 182.202998 
L 180.384463 182.227811 
L 180.529677 182.602759 
L 180.578082 182.493859 
L 180.723296 182.657899 
L 180.771701 182.588975 
L 181.108518 182.153376 
L 181.156923 182.251245 
L 181.205328 182.331199 
L 181.253733 182.190592 
L 181.398947 182.277437 
L 181.544161 182.023797 
L 181.592566 182.12029 
L 181.737781 182.08445 
L 181.882995 180.686668 
L 181.9314 180.755592 
L 182.463853 180.518494 
L 182.512258 180.149058 
L 182.560663 180.206954 
L 182.609067 180.311717 
L 182.851092 180.319992 
L 182.899496 180.540547 
L 182.947901 180.369615 
L 183.093116 180.273123 
L 183.14152 180.024996 
L 183.189925 180.251066 
L 183.23833 180.322749 
L 183.286735 180.289663 
L 183.867593 180.482651 
L 183.915998 180.435782 
L 183.964402 180.551576 
L 184.158022 180.581902 
L 184.303236 179.840279 
L 184.448451 179.804438 
L 184.496855 179.377109 
L 184.54526 179.534258 
L 184.64207 179.961583 
L 184.835689 179.688643 
L 184.884094 179.832007 
L 184.980904 179.435005 
L 185.174523 179.126225 
L 185.319737 179.672103 
L 185.464952 179.446032 
L 185.513357 179.542525 
L 185.561761 179.572853 
L 185.610166 179.490143 
L 185.803786 178.508663 
L 185.85219 178.599644 
L 185.900595 178.5831 
L 185.949 178.800903 
L 185.997405 178.63824 
L 186.191024 178.632726 
L 186.239429 178.8395 
L 186.287834 178.55002 
L 186.336239 178.668569 
L 186.481453 178.878097 
L 186.675072 178.232966 
L 186.820287 178.139231 
L 186.868692 177.543724 
L 186.917096 178.064792 
L 187.013906 177.971053 
L 187.25593 178.285349 
L 187.304335 177.976569 
L 187.35274 178.205396 
L 187.497954 178.039977 
L 187.546359 178.301891 
L 187.643169 178.232968 
L 187.691573 178.425955 
L 187.836788 178.525206 
L 187.885193 178.155774 
L 187.933598 178.583102 
L 187.982002 178.580342 
L 188.030407 178.754033 
L 188.224027 178.481094 
L 188.320836 177.794609 
L 188.369241 178.784355 
L 188.56286 178.381842 
L 188.65967 178.993888 
L 188.708075 178.627213 
L 188.853289 178.439741 
L 189.192123 176.013608 
L 189.240528 176.275519 
L 189.288933 176.713879 
L 189.337337 176.151454 
L 189.579361 175.751696 
L 189.627766 175.751693 
L 189.86979 176.314115 
L 190.015005 175.757204 
L 190.06341 175.980524 
L 190.692672 173.71981 
L 190.741077 173.943127 
L 190.983101 174.114059 
L 191.031506 173.992749 
L 191.079911 174.483493 
L 191.37034 173.372435 
L 191.418745 173.978965 
L 191.563959 173.6564 
L 191.612364 173.824572 
L 191.660769 173.275939 
L 191.709173 173.573689 
L 191.757578 173.543365 
L 191.902793 174.262931 
L 191.999602 172.953373 
L 192.096412 173.526825 
L 192.241627 173.452384 
L 192.338436 173.73635 
L 192.435246 173.422059 
L 192.582477 174.097515 
L 192.630882 173.923826 
L 192.679287 173.871446 
L 192.727692 174.097516 
L 192.921311 175.564223 
L 193.01812 174.17747 
L 193.11493 174.326345 
L 193.260145 174.331856 
L 193.308549 176.074257 
L 193.356954 175.809587 
L 193.598978 175.613847 
L 193.937812 173.683972 
L 193.986217 173.962422 
L 194.034622 173.675697 
L 194.276646 172.884448 
L 194.470265 173.821816 
L 194.663884 173.493741 
L 194.809099 172.435066 
L 194.954313 172.385438 
L 195.051123 172.118015 
L 195.147933 172.517773 
L 195.389957 172.539833 
L 195.631981 174.083729 
L 195.680386 173.945885 
L 195.8256 175.338147 
L 195.970814 175.244414 
L 196.019219 174.938388 
L 196.067624 176.032906 
L 196.164434 175.870241 
L 196.358053 176.829667 
L 196.503267 175.054181 
L 196.793696 176.330663 
L 196.842101 175.379502 
L 196.987316 174.734376 
L 197.13253 176.225897 
L 197.374554 175.768237 
L 197.519769 177.204617 
L 197.713388 176.440938 
L 197.810198 176.995089 
L 197.858602 176.917894 
L 198.003817 176.89584 
L 198.052222 177.091581 
L 198.149031 176.722147 
L 198.342651 178.012411 
L 198.391055 178.023436 
L 198.487865 177.240461 
L 198.53627 177.844233 
L 198.679467 177.92143 
L 198.873087 176.35823 
L 199.018301 176.962005 
L 199.066706 176.168002 
L 199.115111 176.212111 
L 199.163516 176.719392 
L 199.357135 175.754455 
L 199.40554 174.72059 
L 199.502349 175.007312 
L 199.550754 174.839138 
L 199.695969 175.478755 
L 199.889588 174.235366 
L 200.034802 173.937608 
L 200.180017 174.89979 
L 200.228422 174.698536 
L 200.373636 174.67372 
L 200.567255 173.650888 
L 200.80928 174.781241 
L 200.906089 174.136118 
L 201.051304 174.180226 
L 201.148113 174.535876 
L 201.196518 174.442135 
L 201.244923 174.067192 
L 201.583757 175.685527 
L 201.728971 175.415346 
L 201.825781 174.466948 
L 201.874186 174.480732 
L 201.92259 174.475222 
L 202.067805 174.886005 
L 202.213019 176.788315 
L 202.261424 176.134913 
L 202.455043 176.115613 
L 202.551853 175.873 
L 202.600258 176.101828 
L 202.793877 176.099071 
L 203.084306 177.130178 
L 203.132711 177.08607 
L 203.22952 177.794607 
L 203.277925 177.673301 
L 203.42314 177.105363 
L 203.471545 176.39407 
L 203.519949 176.873779 
L 203.568354 176.846209 
L 203.616759 176.58154 
L 203.761973 177.146721 
L 203.810378 177.132935 
L 203.858783 177.011631 
L 203.907188 177.154993 
L 203.955593 177.6733 
L 204.100807 177.954514 
L 204.149212 178.632725 
L 204.246022 178.525202 
L 204.488046 178.919452 
L 204.536451 178.398383 
L 204.584855 178.836744 
L 204.63326 179.062813 
L 204.923689 177.888347 
L 204.972094 177.309383 
L 205.117308 177.190832 
L 205.165713 177.913156 
L 205.214118 177.70914 
L 205.262523 177.615405 
L 205.504547 178.486608 
L 205.552952 178.17231 
L 205.601357 178.505909 
L 205.649761 178.401139 
L 205.843381 178.707164 
L 205.891786 177.929701 
L 205.94019 177.982081 
L 205.988595 178.310157 
L 206.182214 177.105367 
L 206.279024 177.455503 
L 206.327429 177.33695 
L 206.472643 177.687089 
L 206.521048 177.557508 
L 206.569453 177.40863 
L 206.617858 178.213671 
L 206.666263 177.546479 
L 206.956692 177.747742 
L 207.005096 177.543725 
L 207.198716 177.449987 
L 207.24712 177.141209 
L 207.34393 177.678817 
L 207.537549 177.394846 
L 207.876383 179.192387 
L 208.021598 178.478336 
L 208.312027 180.016726 
L 208.360431 179.956071 
L 208.505646 179.644532 
L 208.602455 180.336534 
L 208.699265 179.625236 
L 208.84448 180.328261 
L 208.892884 180.297938 
L 209.038099 182.236083 
L 209.231718 180.02775 
L 209.328528 181.863894 
L 209.376933 181.381421 
L 209.570552 180.521247 
L 209.715766 182.980465 
L 209.909386 182.514536 
L 210.006195 181.276656 
L 210.0546 181.998983 
L 210.298641 182.134074 
L 210.395451 183.041116 
L 210.540665 182.580705 
L 210.68588 183.661435 
L 210.734284 182.963923 
L 210.976308 183.581482 
L 211.073118 184.527123 
L 211.218333 184.620859 
L 211.266737 183.992271 
L 211.315142 184.088765 
L 211.411952 183.609052 
L 211.557166 183.705546 
L 211.702381 184.585019 
L 211.944405 182.94738 
L 212.089619 183.575969 
L 212.380048 182.569674 
L 212.428453 182.8564 
L 212.573667 182.823317 
L 212.670477 183.617323 
L 212.767287 183.214807 
L 212.912501 183.280974 
L 212.960906 183.620079 
L 213.009311 183.589752 
L 213.10612 183.683492 
L 213.590169 182.509022 
L 213.735383 183.176207 
L 213.783788 182.91154 
L 213.977407 182.897753 
L 214.025812 183.06593 
L 214.122622 183.032847 
L 214.413051 182.051364 
L 214.60667 182.917054 
L 214.800289 182.100993 
L 214.945504 182.062394 
L 215.090718 182.415287 
L 215.139123 182.280194 
L 215.381147 182.724066 
L 215.429552 181.913519 
L 215.477957 182.467667 
L 215.623171 182.180945 
L 215.671576 182.349118 
L 215.719981 182.189216 
L 215.768386 181.753612 
L 215.81679 182.379444 
L 216.058814 182.357388 
L 216.107219 182.321547 
L 216.155624 183.112798 
L 216.298822 183.559429 
L 216.492441 182.644114 
L 216.637655 182.506266 
L 216.68606 182.958407 
L 216.734465 182.837101 
L 216.831275 182.558647 
L 216.976489 182.652383 
L 217.121704 181.902488 
L 217.170108 182.486967 
L 217.460537 181.759127 
L 217.508942 181.389694 
L 217.702561 181.921788 
L 217.799371 181.125025 
L 217.99299 180.77489 
L 218.041395 180.8383 
L 218.0898 180.992692 
L 218.138205 180.708721 
L 218.331824 181.866647 
L 218.380229 181.84735 
L 218.525443 181.177407 
L 218.670658 181.207735 
L 218.767467 181.417263 
L 218.815872 181.196707 
L 218.864277 181.375909 
L 219.106301 181.651604 
L 219.203111 182.167159 
L 219.348325 182.453883 
L 219.39673 182.244353 
L 219.49354 182.597246 
L 219.541945 182.536591 
L 219.687159 182.274679 
L 220.074398 183.473958 
L 220.171207 183.520828 
L 220.219612 183.140367 
L 220.413231 182.624817 
L 220.510041 182.958408 
L 220.558446 182.867428 
L 220.70366 183.195507 
L 220.80047 182.735093 
L 220.848875 182.792989 
L 221.139304 183.358168 
L 221.187708 183.264432 
L 221.236113 183.344384 
L 221.381328 183.366439 
L 221.429733 183.749657 
L 221.526542 183.705545 
L 221.574947 183.57597 
L 221.865376 183.551157 
L 222.155805 184.033624 
L 222.20421 183.879236 
L 222.252614 184.01984 
L 222.397829 184.028111 
L 222.591448 183.65592 
L 222.785067 183.490502 
L 223.075496 183.046629 
L 223.269116 183.749656 
L 223.41433 183.598024 
L 223.607949 182.881213 
L 223.753164 182.69374 
L 223.801569 183.016304 
L 223.849973 182.889484 
L 223.946783 182.55589 
L 224.140402 182.724066 
L 224.237212 183.267188 
L 224.285617 183.165181 
L 224.576046 183.471203 
L 224.769665 182.972193 
L 224.866475 183.253402 
L 224.91488 183.231348 
L 224.963284 183.079712 
L 225.156904 182.933595 
L 225.253713 182.743365 
L 225.302118 182.759906 
L 225.447333 182.917054 
L 225.592547 182.55589 
L 225.640952 182.531077 
L 225.786166 182.291221 
L 225.834571 182.373932 
L 225.882976 182.437342 
L 225.931381 182.285708 
L 225.979786 182.486967 
L 226.173405 182.418041 
L 226.22181 182.25538 
L 226.270214 182.357389 
L 226.318619 182.577947 
L 226.463834 182.608272 
L 226.657453 182.13132 
L 226.851072 182.277438 
L 226.947882 181.93833 
L 226.996287 182.045851 
L 227.141501 181.982441 
L 227.286716 182.671683 
L 227.33512 182.577946 
L 227.673954 182.933595 
L 227.917995 182.983218 
L 227.9664 183.082471 
L 228.014805 183.046631 
L 228.208424 182.497994 
L 228.256829 182.746121 
L 228.305234 183.013548 
L 228.353639 182.878457 
L 228.498853 183.118314 
L 228.644067 182.91981 
L 228.692472 182.944625 
L 228.886092 182.577946 
L 229.031306 182.798504 
L 229.17652 182.696497 
L 229.563759 183.843394 
L 229.612164 183.791013 
L 229.660569 183.906805 
L 229.708973 183.5098 
L 229.902593 183.570455 
L 230.047807 183.429849 
L 230.870689 183.589756 
L 230.967499 183.206534 
L 231.015904 184.157689 
L 231.064308 183.983999 
L 232.274429 184.176987 
L 232.371239 184.061195 
L 232.419643 184.113577 
L 232.564858 184.121848 
L 232.661667 184.485767 
L 232.710072 184.383758 
L 232.952096 184.386517 
L 233.000501 184.447171 
L 233.048906 184.372732 
L 233.242525 184.339649 
L 233.581359 184.907583 
L 233.774978 184.753194 
L 234.065407 184.645672 
L 234.113812 184.290023 
L 234.353819 184.328621 
L 234.402224 183.73863 
L 234.450629 183.854421 
L 234.741058 183.609053 
L 234.789463 183.658679 
L 234.934677 183.570454 
L 235.031487 183.702788 
L 235.079892 183.631108 
L 235.757559 183.057657 
L 235.805964 182.644113 
L 235.951178 182.768178 
L 235.999583 182.64963 
L 236.047988 182.682712 
L 236.144798 182.784718 
L 236.338417 182.690982 
L 236.386822 182.894997 
L 236.435227 182.784719 
L 236.483631 182.76542 
L 236.628846 182.892241 
L 236.677251 182.699252 
L 236.725655 182.94738 
L 236.77406 182.980465 
L 236.822465 183.330597 
L 236.96768 183.167937 
L 237.161299 183.691761 
L 237.354918 183.559425 
L 237.500133 184.030869 
L 237.645347 183.796526 
L 237.693752 183.942644 
L 237.838966 183.355411 
L 238.032586 183.443633 
L 238.08099 183.628349 
L 238.1778 183.56494 
L 238.323014 183.669705 
L 238.419824 183.862693 
L 238.468229 183.788254 
L 238.516634 183.87372 
L 238.710253 183.62835 
L 238.855467 184.339648 
L 239.000682 184.29278 
L 239.194301 184.598804 
L 239.436325 184.615345 
L 239.533135 184.430629 
L 239.775159 184.576747 
L 239.871969 184.491283 
L 240.017183 184.436144 
L 240.162398 184.301051 
L 240.404422 184.397545 
L 240.549636 184.182502 
L 240.743255 183.881991 
L 240.79166 184.074979 
L 240.88847 184.295537 
L 241.178899 183.829609 
L 241.227304 183.904048 
L 241.372518 183.840638 
L 241.566137 184.265209 
L 241.711352 184.306565 
L 241.759757 184.160446 
L 241.808161 184.185257 
L 241.904971 184.44717 
L 242.050186 184.455441 
L 242.146995 184.673242 
L 242.1954 184.58226 
L 242.389019 184.66497 
L 242.437424 184.772492 
L 242.485829 184.667728 
L 242.776258 184.44717 
L 242.824663 184.527121 
L 243.163496 184.576747 
L 243.260306 184.262455 
L 243.550735 184.323107 
L 243.59914 184.2018 
L 243.841164 184.210071 
L 244.083188 184.196284 
L 244.228402 184.088765 
L 244.276807 184.182502 
L 244.518831 184.19353 
L 244.615641 184.483013 
L 244.80926 184.687026 
L 244.857665 184.579504 
L 244.954475 184.414087 
L 245.779373 184.15769 
L 245.827778 183.997785 
L 245.876183 184.099793 
L 245.924588 184.160446 
L 245.972993 183.881992 
L 246.166612 183.995028 
L 246.215017 183.766199 
L 246.263422 184.022597 
L 246.505446 184.091522 
L 246.65066 184.069466 
L 246.941089 184.072222 
L 246.989494 183.848908 
L 247.328328 183.680732 
L 247.473542 183.5098 
L 247.618757 183.713816 
L 248.199614 183.542885 
L 248.344829 183.347142 
L 248.538448 183.341629 
L 248.925687 184.091522 
L 249.022496 183.997785 
L 249.312925 184.041896 
L 249.36133 183.835125 
L 249.603354 183.865449 
L 249.893783 183.846152 
L 250.038998 184.245912 
L 250.281022 184.149418 
L 250.329427 184.276239 
L 250.377831 184.086007 
L 250.571451 184.221097 
L 250.716665 184.113577 
L 251.345928 184.21007 
L 251.539547 184.127362 
L 251.733166 184.31208 
L 251.924769 184.317594 
L 252.069983 183.840638 
L 252.312007 183.895776 
L 252.360412 183.548399 
L 252.408817 183.653163 
L 252.602436 183.625592 
L 252.747651 183.421578 
L 252.94127 183.451905 
L 253.086484 183.052144 
L 253.328508 183.071444 
L 253.425318 182.713038 
L 253.667342 182.285707 
L 253.715747 182.434584 
L 254.006176 182.395988 
L 254.102986 182.536593 
L 254.2482 182.462156 
L 254.393414 182.611029 
L 254.441819 182.486968 
L 254.635439 182.62206 
L 254.732248 182.566918 
L 254.780653 182.349118 
L 254.925867 182.310521 
L 255.071082 182.657899 
L 255.119487 182.106504 
L 255.700345 181.976928 
L 255.748749 182.004497 
L 255.797154 182.23884 
L 256.426417 182.462153 
L 256.716846 182.142345 
L 256.813655 182.418041 
L 257.007275 182.514535 
L 257.152489 182.31052 
L 257.442918 182.106504 
L 257.830157 183.099013 
L 258.023776 183.170695 
L 258.072181 183.060417 
L 258.16899 183.253403 
L 258.314205 183.278216 
L 258.36261 183.154155 
L 258.411014 183.176209 
L 258.507824 183.245133 
L 258.653039 183.110042 
L 258.846658 183.586995 
L 258.991872 183.708303 
L 259.137087 183.983999 
L 259.185492 183.752415 
L 259.379111 183.948159 
L 259.427516 183.768957 
L 259.47592 184.516094 
L 259.524325 183.86545 
L 259.814754 183.212051 
L 259.863159 183.501532 
L 260.153588 183.101771 
L 260.201993 183.416065 
L 260.395612 183.727603 
L 260.492422 183.300271 
L 260.540827 183.399523 
L 260.782851 183.231348 
L 260.87966 182.828832 
L 261.121684 183.090741 
L 261.218494 183.473961 
L 261.363708 183.413307 
L 261.460518 183.049387 
L 261.508923 183.087985 
L 261.750947 183.443633 
L 261.896161 182.966679 
L 262.38021 182.743364 
L 262.428614 182.997004 
L 262.477019 182.815046 
L 262.525424 182.817803 
L 262.573829 182.67444 
L 262.767448 182.671685 
L 262.912663 182.536591 
L 263.057877 182.500752 
L 263.106282 182.809532 
L 263.154687 182.713037 
L 263.203092 182.704767 
L 263.251496 182.583461 
L 263.447133 182.641357 
L 263.592347 182.820559 
L 263.785966 182.91981 
L 263.931181 183.606294 
L 264.076395 183.589753 
L 264.1248 183.43812 
L 264.173205 183.529098 
L 264.270014 183.625593 
L 264.415229 183.598025 
L 264.608848 183.132096 
L 264.899277 183.178965 
L 264.947682 183.170694 
L 265.141301 182.894999 
L 265.189706 183.068688 
L 265.238111 183.148637 
L 265.286516 183.107284 
L 265.480135 183.314057 
L 265.52854 183.201021 
L 265.625349 183.087985 
L 265.915778 183.043875 
L 265.964183 182.980464 
L 266.157802 182.939108 
L 266.206207 183.126583 
L 266.254612 183.060416 
L 266.303017 182.724066 
L 266.883875 183.261674 
L 266.980684 182.795746 
L 267.222708 182.856401 
L 267.319518 182.892242 
L 267.851971 183.242375 
L 267.948781 182.897753 
L 267.997186 183.198266 
L 268.287614 183.363536 
L 268.336019 183.238651 
L 268.578043 183.185923 
L 268.626448 183.305256 
L 268.674853 183.230325 
L 268.820067 183.369087 
L 268.868472 183.296932 
L 269.013687 183.058261 
L 269.592528 183.080463 
L 269.640933 183.152621 
L 269.689337 183.052711 
L 269.882957 183.022186 
L 269.931361 183.005533 
L 269.979766 182.669732 
L 270.028171 183.210898 
L 270.270195 183.08879 
L 270.512219 183.641057 
L 270.560624 183.432916 
L 270.609029 183.574454 
L 270.851053 183.693788 
L 270.899458 183.635505 
L 270.996267 183.763167 
L 271.044672 183.707662 
L 271.189887 183.763167 
L 271.383506 183.449568 
L 271.577125 183.468995 
L 271.72234 183.357987 
L 272.061173 183.466218 
L 272.545222 184.082318 
L 272.593627 183.907479 
L 272.642031 183.921355 
L 272.738841 184.548555 
L 273.077675 184.295348 
L 273.368104 184.228216 
L 273.416508 184.424021 
L 273.706937 184.219825 
L 273.755342 184.426818 
L 273.900557 184.309335 
L 274.094176 184.793251 
L 274.384605 184.586259 
L 274.43301 184.712132 
L 274.723439 184.706539 
L 274.917058 184.516328 
L 274.965463 184.622624 
L 275.110677 184.608637 
L 275.255892 184.561084 
L 275.401106 184.879966 
L 275.449511 184.857588 
L 275.691535 185.008638 
L 275.73994 184.921924 
L 275.788345 185.003042 
L 276.030369 185.249198 
L 276.078773 185.201644 
L 276.272393 185.142903 
L 276.466012 185.215631 
L 276.659631 185.196051 
L 276.804846 184.969477 
L 276.95006 184.493951 
L 276.998465 184.647798 
L 277.095275 184.83521 
L 277.337299 184.225419 
L 277.385704 184.222623 
L 277.434108 184.398846 
L 277.482513 184.384822 
L 277.772942 184.393327 
L 277.821347 184.234584 
L 278.063371 183.880245 
L 278.402205 183.474883 
L 278.644229 183.131884 
L 278.692634 183.293461 
L 278.789443 183.239603 
L 278.837848 183.197081 
L 279.031467 183.409685 
L 279.176682 183.758353 
L 279.709135 183.069521 
L 279.75754 182.87676 
L 279.805945 183.1007 
L 279.854349 183.185742 
L 280.144778 183.177237 
L 280.193183 183.052511 
L 280.435207 183.15456 
L 280.532017 182.964636 
L 280.822446 183.199917 
L 280.870851 182.987313 
L 281.114892 182.93062 
L 281.356916 183.398347 
L 281.550535 182.686837 
L 281.889369 181.927132 
L 282.518631 182.232586 
L 282.712251 181.852057 
L 282.857465 181.711864 
L 282.90587 181.926447 
L 283.147894 181.720447 
L 283.196299 181.840613 
L 283.244704 182.272643 
L 283.535133 182.544449 
L 283.583537 182.664617 
L 283.728752 182.69609 
L 283.873966 182.355616 
L 283.922371 182.687506 
L 284.067586 182.618842 
L 284.2128 183.148149 
L 284.261205 183.185344 
L 284.600039 182.942148 
L 284.938872 182.924981 
L 285.277706 182.724702 
L 285.42292 182.636006 
L 285.471325 182.435728 
L 285.568135 182.481506 
L 285.810159 182.152475 
L 285.906969 182.261199 
L 285.955373 182.232589 
L 286.148993 182.452896 
L 286.197398 182.344172 
L 286.245802 182.318423 
L 286.294207 182.547312 
L 286.487827 182.587367 
L 286.536231 182.604536 
L 286.584636 182.430005 
L 286.633041 182.546342 
L 286.82666 182.795129 
L 286.971875 182.537662 
L 287.115072 182.540555 
L 287.260287 182.239698 
L 287.308692 182.346734 
L 287.453906 182.393019 
L 287.502311 182.216553 
L 287.550716 182.329377 
L 287.647525 182.343838 
L 287.889549 182.071911 
L 287.937954 182.369878 
L 288.228383 180.917655 
L 288.325193 181.099904 
L 288.615622 180.995761 
L 288.664027 180.547368 
L 288.809241 180.417187 
L 288.857646 180.553152 
L 288.906051 180.431651 
L 289.00286 180.234936 
L 289.244884 180.075829 
L 289.293289 179.769181 
L 289.341694 179.79811 
L 289.583718 179.563789 
L 289.632123 179.630325 
L 289.680528 179.095143 
L 289.825742 178.973645 
L 289.874147 178.76825 
L 289.922552 178.826109 
L 290.019361 178.927355 
L 290.30979 178.450032 
L 290.358195 178.565747 
L 290.50341 178.172316 
L 290.551814 178.369031 
L 290.697029 179.491467 
L 290.939053 180.547365 
L 290.987458 180.524223 
L 291.035863 180.127639 
L 291.181077 179.996382 
L 291.374696 179.290512 
L 291.61672 178.584643 
L 291.665125 178.981327 
L 291.71353 178.403802 
L 291.858745 178.29296 
L 291.955554 178.508808 
L 292.052364 177.595843 
L 292.294388 177.980863 
L 292.584817 177.339161 
L 292.633222 177.379995 
L 292.875246 177.108729 
L 292.972055 177.228326 
L 293.02046 177.134984 
L 293.068865 177.242908 
L 293.407699 176.878306 
L 293.601318 177.097069 
L 293.649723 177.202072 
L 293.698128 177.097066 
L 293.891747 176.353277 
L 293.940152 176.417447 
L 294.036961 175.230301 
L 294.085366 175.390727 
L 294.230581 174.996961 
L 294.278986 175.031962 
L 294.375795 175.708659 
L 294.4242 175.606575 
L 294.569414 175.513232 
L 294.617819 175.206966 
L 294.666224 175.358648 
L 294.763034 175.825338 
L 295.005058 175.67366 
L 295.053463 173.938156 
L 295.101867 174.331926 
L 295.247082 174.632355 
L 295.295487 174.48943 
L 295.343892 175.279892 
L 295.392296 175.050537 
L 295.440701 174.686849 
L 295.63432 174.783644 
L 295.73113 175.1092 
L 295.779535 174.648725 
L 296.069964 175.11213 
L 296.118369 175.120929 
L 296.263583 174.164779 
L 296.311988 174.261568 
L 296.457202 174.463943 
L 296.602417 175.156123 
L 296.650822 175.018276 
L 296.699227 174.636987 
L 296.747631 174.795368 
L 296.941251 175.229449 
L 296.989655 175.129729 
L 297.03806 174.751377 
L 297.086465 174.953751 
L 297.13487 175.082802 
L 297.280084 174.94495 
L 297.376894 175.156125 
L 297.473704 174.557799 
L 297.618918 174.689783 
L 297.812537 174.120784 
L 298.151371 173.563519 
L 298.34499 173.572316 
L 298.393395 173.299548 
L 298.4418 173.484326 
L 298.490205 173.516591 
L 298.685841 173.437399 
L 298.734246 173.044381 
L 298.782651 173.264354 
L 298.831055 173.865614 
L 299.07308 173.091304 
L 299.121484 172.756947 
L 299.169889 172.80974 
L 299.315104 172.929994 
L 299.508723 175.027074 
L 299.653937 174.801235 
L 299.750747 175.508084 
L 299.847557 175.534485 
L 299.992771 175.367885 
L 300.137986 176.208575 
L 300.18639 176.196776 
L 300.331605 176.373768 
L 300.428414 176.17318 
L 300.476819 176.361966 
L 300.525224 176.105331 
L 300.864058 174.951966 
L 301.009272 175.120101 
L 301.154487 174.609791 
L 301.348106 175.223347 
L 301.396511 175.090606 
L 301.49332 175.176147 
L 301.541725 175.010961 
L 301.68694 175.149601 
L 301.735345 175.382633 
L 301.783749 176.718893 
L 301.880559 176.547802 
L 302.025773 176.261672 
L 302.170988 178.836839 
L 302.219393 178.500565 
L 302.413012 178.311775 
L 302.461417 178.429771 
L 302.509822 178.052198 
L 302.558227 178.485819 
L 302.703441 178.878139 
L 302.751846 178.674602 
L 302.89706 179.341256 
L 303.042275 179.358955 
L 303.139084 179.742428 
L 303.235894 179.229164 
L 303.381108 179.202616 
L 303.429513 178.925335 
L 303.526323 178.99023 
L 303.574728 179.143618 
L 303.913561 179.181965 
L 304.058776 179.173118 
L 304.155586 178.367824 
L 304.252395 178.645106 
L 304.39761 178.7454 
L 304.591229 178.173136 
L 304.831236 178.471067 
L 304.879641 178.281975 
L 304.928046 178.701492 
L 305.07326 178.064777 
L 305.218475 178.537849 
L 305.26688 178.168912 
L 305.412094 178.371232 
L 305.460499 178.240321 
L 305.508904 178.338507 
L 305.557308 178.630085 
L 305.605713 178.555701 
L 305.944547 176.154642 
L 306.089761 176.975819 
L 306.138166 176.711019 
L 306.186571 176.645562 
L 306.234976 176.827053 
L 306.283381 177.556004 
L 306.428595 177.517323 
L 306.525405 177.225747 
L 306.57381 177.594683 
L 306.767429 177.350705 
L 306.815834 177.517323 
L 306.864239 177.065079 
L 306.961048 177.862455 
L 307.106263 177.889233 
L 307.154667 177.680962 
L 307.203072 177.728569 
L 307.541906 178.400985 
L 307.590311 179.028775 
L 307.638716 178.960341 
L 307.832335 178.683638 
L 307.88074 178.472391 
L 307.977549 179.129934 
L 308.267978 178.725294 
L 308.316383 178.20759 
L 308.510002 178.159986 
L 308.558407 178.579501 
L 308.606812 178.278998 
L 308.800431 178.364863 
L 308.848836 178.734045 
L 308.897241 178.725041 
L 308.945646 178.493926 
L 308.994051 178.656009 
L 309.139265 178.478923 
L 309.18767 178.70703 
L 309.236075 178.466916 
L 309.28448 178.403882 
L 309.332884 178.77006 
L 309.478099 178.613986 
L 309.574908 177.572476 
L 309.623313 177.635509 
L 309.816933 177.641513 
L 310.010552 177.539459 
L 310.252576 177.488437 
L 310.4946 177.203299 
L 310.639814 177.353371 
L 310.688219 177.185287 
L 310.881839 177.161278 
L 310.930243 177.28734 
L 310.978648 177.176281 
L 311.027053 177.15227 
L 311.220672 176.792096 
L 311.365887 175.909667 
L 311.559506 175.849637 
L 311.70472 177.071234 
L 311.946745 177.359375 
L 311.995149 177.146269 
L 312.043554 177.386387 
L 312.188769 177.371381 
L 312.237173 177.182289 
L 312.333983 177.221307 
L 312.382388 177.107248 
L 312.527602 177.650514 
L 312.576007 177.428405 
L 312.624412 177.410397 
L 312.721222 176.563984 
L 312.866436 176.593999 
L 312.914841 176.936166 
L 313.011651 176.843119 
L 313.060055 176.686816 
L 313.253675 176.883413 
L 313.398889 176.272446 
L 313.544104 176.033507 
L 313.689318 176.650521 
L 313.737723 176.357136 
L 313.931342 176.532562 
L 313.979747 176.109119 
L 314.028152 176.366207 
L 314.076557 176.266398 
L 314.318581 176.865264 
L 314.366986 176.568855 
L 314.41539 176.952979 
L 314.657414 177.237292 
L 314.705819 177.479254 
L 314.754224 177.234265 
L 314.899439 177.424815 
L 315.093058 178.117442 
L 315.238272 178.141639 
L 315.335082 178.646745 
L 315.431892 177.681903 
L 315.577106 177.666781 
L 315.72232 177.318954 
L 315.91594 176.971125 
L 316.012749 177.264511 
L 316.061154 177.158649 
L 316.109559 176.807799 
L 316.305195 176.810821 
L 316.45041 176.163562 
L 316.692434 176.816874 
L 316.740839 176.320842 
L 316.789243 176.502317 
L 317.031267 176.251275 
L 317.079672 176.314791 
L 317.128077 177.664149 
L 317.370101 178.243177 
L 317.466911 178.334601 
L 317.612125 178.209654 
L 317.708935 178.867916 
L 317.805745 178.389457 
L 317.950959 178.368124 
L 318.096173 179.419513 
L 318.144578 179.401229 
L 318.386602 179.888831 
L 318.628627 178.557068 
L 318.677031 179.224475 
L 318.725436 179.050765 
L 318.822246 179.440844 
L 319.015865 179.480464 
L 319.06427 179.242759 
L 319.16108 179.294566 
L 319.306294 179.459132 
L 319.354699 178.956292 
L 319.403104 179.224474 
L 319.499913 179.4378 
L 319.645128 179.754739 
L 319.741937 178.337648 
L 319.838747 178.797824 
L 320.032366 178.602781 
L 320.080771 178.803916 
L 320.129176 178.325459 
L 320.177581 178.413837 
L 320.322795 178.279747 
L 320.419605 177.941472 
L 320.661629 178.974576 
L 320.758439 178.346793 
L 320.806843 178.477834 
L 320.855248 178.410789 
L 321.000463 178.538782 
L 321.097272 178.069465 
L 321.145677 178.21575 
L 321.194082 178.386407 
L 321.387701 178.291934 
L 321.436106 178.401645 
L 321.532916 178.197464 
L 321.67813 178.112132 
L 321.726535 178.197464 
L 321.871749 178.365078 
L 322.016964 178.40774 
L 322.162178 177.490441 
L 322.210583 177.539203 
L 322.402186 177.322828 
L 322.45059 177.08817 
L 322.498995 177.499584 
L 322.5474 177.298926 
L 322.837829 177.040593 
L 322.886234 177.111328 
L 323.079853 176.979088 
L 323.128258 177.092877 
L 323.225067 178.089313 
L 323.370282 177.864805 
L 323.418687 178.178495 
L 323.467092 178.030877 
L 323.515496 177.969368 
L 323.709116 177.987821 
L 323.75752 177.874031 
L 323.805925 178.049329 
L 324.047949 177.249724 
L 324.096354 177.295854 
L 324.144759 177.194362 
L 324.193164 177.083651 
L 324.241569 177.154384 
L 324.386783 177.437322 
L 324.435188 177.237421 
L 324.531998 177.295853 
L 324.725617 177.148232 
L 324.774022 177.31738 
L 324.822427 177.35121 
L 324.919236 177.794071 
L 325.16126 177.403492 
L 325.209665 177.637224 
L 325.25807 177.421945 
L 325.403284 177.345059 
L 325.500094 177.658751 
L 325.548499 177.563415 
L 325.596904 177.627997 
L 325.935737 177.139006 
L 326.177761 177.203592 
L 326.226166 177.50498 
L 326.274571 176.14873 
L 326.46819 176.330172 
L 326.565 176.096444 
L 326.613405 176.111821 
L 326.758619 176.025103 
L 326.807024 176.304162 
L 326.903834 176.27626 
L 326.952239 176.366178 
L 327.097453 176.38168 
L 327.145858 176.521211 
L 327.194263 176.490209 
L 327.291072 176.217345 
L 327.436287 176.263856 
L 327.581501 175.851461 
L 327.629906 176.099518 
L 327.77512 176.115022 
L 327.823525 176.316566 
L 327.87193 176.263855 
L 327.920335 176.090216 
L 328.113954 176.304162 
L 328.307573 175.011174 
L 328.549598 175.147604 
L 328.598002 175.262329 
L 328.646407 175.029778 
L 328.791622 175.256129 
L 328.840027 175.187913 
L 328.888431 175.172407 
L 328.936836 175.029778 
L 328.985241 175.101092 
L 329.227265 175.584804 
L 329.324075 175.330545 
L 329.469289 175.417363 
L 329.517694 175.811153 
L 329.566099 175.510383 
L 329.614504 175.342949 
L 329.662908 175.61581 
L 329.808123 175.448374 
L 329.904933 175.618911 
L 330.146957 174.964663 
L 330.243766 175.153805 
L 330.48579 176.694851 
L 330.631005 175.346048 
L 330.873029 176.797177 
L 331.260267 176.528681 
L 331.308672 176.644404 
L 331.550696 176.143974 
L 331.599101 176.240934 
L 331.647506 175.915651 
L 331.695911 176.178376 
L 331.841125 176.312868 
L 331.98634 176.93215 
L 332.034745 176.753873 
L 332.228364 177.101049 
L 332.276769 176.847704 
L 332.325173 176.757001 
L 332.373578 177.076025 
L 332.857627 175.824948 
L 333.002841 176.143973 
L 333.051246 175.824949 
L 333.244865 175.66856 
L 333.341675 175.230686 
L 333.39008 174.780301 
L 333.632104 175.768651 
L 333.728913 175.312006 
L 333.924549 175.193154 
L 334.021359 174.989856 
L 334.069764 175.052406 
L 334.214978 175.046151 
L 334.553812 178.101908 
L 334.650622 177.923632 
L 334.699027 177.898607 
L 334.747431 177.445093 
L 334.892646 179.309202 
L 334.989455 177.854822 
L 335.425099 179.318499 
L 335.570313 179.182611 
L 335.909147 180.193866 
L 336.005957 179.934733 
L 336.054361 180.016895 
L 336.102766 180.535164 
L 336.247981 180.658411 
L 336.296386 180.541485 
L 336.34479 180.573087 
L 336.586814 180.708974 
L 336.635219 180.629968 
L 336.683624 180.708973 
L 336.732029 180.690012 
L 336.925648 181.129276 
L 336.974053 180.639448 
L 337.070863 180.787977 
L 337.119267 180.604688 
L 337.264482 180.721613 
L 337.312887 180.525684 
L 337.458101 181.75499 
L 337.65172 181.470574 
L 337.74853 181.71391 
L 337.796935 181.543261 
L 337.990554 181.663346 
L 338.087364 181.303086 
L 338.135769 181.533777 
L 338.329388 181.258842 
L 338.377793 181.423172 
L 338.426198 181.438973 
L 338.474602 181.138757 
L 338.619817 181.284125 
L 338.668222 180.936507 
L 338.716627 181.078713 
L 338.765031 181.315727 
L 338.813436 181.214601 
L 339.007055 181.037631 
L 339.15227 180.44036 
L 339.297484 180.658411 
L 339.442699 180.320272 
L 339.684723 179.862049 
L 339.733128 179.915771 
L 339.829937 179.359832 
L 340.071961 179.96394 
L 340.120366 179.660288 
L 340.168771 179.912798 
L 340.311969 179.842478 
L 340.457183 179.388601 
L 340.650802 179.791337 
L 340.747612 180.027866 
L 340.796017 179.976724 
L 340.989636 180.421014 
L 341.134851 179.487685 
L 341.183255 179.532434 
L 341.32847 179.64111 
L 341.522089 180.31873 
L 341.764113 180.005491 
L 341.860923 179.526044 
L 342.006137 179.490885 
L 342.151352 179.161661 
L 342.199757 179.359834 
L 342.490186 179.072164 
L 342.53859 179.158465 
L 342.683805 179.187231 
L 342.877424 180.018278 
L 343.119448 180.037453 
L 343.216258 180.373068 
L 343.361472 180.481743 
L 343.409877 180.376265 
L 343.506687 180.711879 
L 343.555092 180.507315 
L 343.797116 180.478548 
L 343.84552 180.088596 
L 343.893925 180.71188 
L 344.232759 180.417818 
L 344.523188 180.584822 
L 344.571593 180.947498 
L 344.813617 181.352269 
L 344.910427 181.261601 
L 345.104046 181.135312 
L 345.24926 181.488272 
L 345.394475 181.478558 
L 345.588094 180.970165 
L 345.781713 180.921591 
L 345.830118 181.180646 
L 345.878523 181.086739 
L 345.926928 181.038165 
L 346.217357 180.299862 
L 346.410976 180.60749 
L 346.55619 179.587463 
L 346.74981 179.791468 
L 346.798214 179.694324 
L 346.846619 179.500033 
L 346.943429 179.555082 
L 347.137048 179.778517 
L 347.185453 180.270718 
L 347.233858 180.10881 
L 347.427477 179.914521 
L 347.524287 180.089382 
L 347.621096 179.636037 
L 347.814716 179.422316 
L 347.86312 179.678132 
L 347.95993 179.616608 
L 348.201954 179.270121 
L 348.637598 180.539488 
L 348.976431 180.507362 
L 349.170051 180.832178 
L 349.218455 180.609072 
L 349.26686 180.855144 
L 349.508884 180.461429 
L 349.557289 180.556577 
L 349.605694 180.392527 
L 349.654099 180.408934 
L 349.799313 180.451585 
L 349.896123 180.668129 
L 349.944528 180.651724 
L 349.992933 180.691096 
L 350.186552 180.559858 
L 350.331766 180.881392 
L 350.525386 180.874831 
L 350.6706 181.281672 
L 351.009434 181.442438 
L 351.154648 181.350571 
L 351.348267 181.803342 
L 351.541887 181.796782 
L 351.590292 182.918872 
L 351.687101 182.853252 
L 351.882737 182.738419 
L 351.931142 182.918872 
L 352.027952 182.518593 
L 352.60881 181.544147 
L 352.705619 181.097936 
L 352.850834 181.143869 
L 352.947643 181.529311 
L 352.996048 181.46271 
L 353.238072 181.466041 
L 353.334882 181.016497 
L 353.383287 181.049797 
L 353.528501 180.996518 
L 353.576906 180.846669 
L 353.625311 180.903278 
L 353.673716 181.259584 
L 353.72212 181.232944 
L 353.867335 181.212964 
L 354.012549 180.893289 
L 354.060954 181.163014 
L 354.254573 181.212965 
L 354.302978 181.086426 
L 354.351383 181.269574 
L 354.399788 181.209634 
L 354.738622 181.299543 
L 354.932241 181.509329 
L 354.980646 181.436072 
L 355.029051 181.479359 
L 355.077455 182.25191 
L 355.271075 182.102063 
L 355.367884 181.838995 
L 355.416289 181.862305 
L 356.384386 181.419421 
L 356.43279 181.176335 
L 356.578005 181.099746 
L 356.62641 181.259583 
L 356.674814 181.099745 
L 356.771624 181.226284 
L 357.062053 180.909939 
L 357.110458 181.166345 
L 357.304077 180.906609 
L 357.400887 181.525979 
L 357.449292 181.329513 
L 357.594506 181.256254 
L 357.691316 181.432741 
L 357.788125 181.322441 
L 357.931323 181.298772 
L 357.979728 181.49827 
L 358.028133 181.335968 
L 358.415371 181.508415 
L 358.463776 182.448432 
L 358.60899 182.800093 
L 358.80261 182.079863 
L 358.947824 182.059575 
L 359.093039 182.248933 
L 359.286658 182.37066 
L 359.722301 181.924322 
L 360.061135 181.755254 
L 360.10954 181.670721 
L 360.157945 181.86684 
L 360.351564 181.954755 
L 360.448373 181.5659 
L 360.496778 181.660576 
L 360.738802 181.376543 
L 360.787207 181.183807 
L 360.835612 181.464459 
L 361.029231 181.447551 
L 361.077636 181.400213 
L 361.174446 181.626763 
L 361.368065 181.434026 
L 361.51328 182.194829 
L 361.706899 182.174542 
L 361.852113 181.988568 
L 362.142542 182.057001 
L 362.190947 182.339 
L 362.432971 182.122344 
L 362.674995 182.572851 
L 362.771805 182.569413 
L 362.868614 182.634753 
L 363.062234 182.428413 
L 363.207448 182.19456 
L 363.449472 182.259904 
L 363.739901 182.466243 
L 363.885116 182.366512 
L 364.03033 182.442169 
L 364.175545 182.349318 
L 364.369164 182.555656 
L 364.562783 182.232391 
L 364.853212 182.342439 
L 364.901617 182.184245 
L 365.192046 182.139538 
L 365.240451 182.369951 
L 365.385665 182.125782 
L 365.43407 182.211757 
L 365.579284 182.435291 
L 365.772904 182.411217 
L 365.869713 182.194562 
L 365.918118 182.830776 
L 366.256952 183.277846 
L 366.498976 183.140286 
L 366.547381 183.002313 
L 366.595786 183.061947 
L 366.83781 182.798853 
L 366.934619 182.63398 
L 367.079834 182.521727 
L 367.128239 182.598902 
L 367.418667 182.648011 
L 367.563882 182.374395 
L 367.805906 182.48314 
L 367.854311 182.626964 
L 367.902716 182.553299 
L 367.95112 182.514712 
L 368.289954 182.784822 
L 368.580383 182.655028 
L 368.822407 182.511203 
L 368.967622 182.869012 
L 369.112836 182.858488 
L 369.306455 183.184725 
L 369.502092 183.402216 
L 369.598901 183.661802 
L 369.647306 183.56358 
L 369.937735 184.058197 
L 369.98614 183.95296 
L 370.179759 183.886309 
L 370.228164 183.41274 
L 370.324973 183.560072 
L 370.470188 183.503945 
L 370.615402 182.798295 
L 370.663807 182.973597 
L 370.857427 182.68739 
L 370.954236 182.88058 
L 371.002641 182.919934 
L 371.19626 182.823338 
L 371.29307 182.944976 
L 371.341475 183.077346 
L 372.019142 183.152475 
L 372.212761 183.249069 
L 372.357976 183.098811 
L 372.6 182.737477 
L 372.648405 182.547865 
L 372.69681 183.055881 
L 372.890429 183.23476 
L 372.938834 183.506654 
L 372.987239 183.42437 
L 373.180858 183.156053 
L 373.374477 183.642601 
L 373.616501 183.54243 
L 373.713311 183.749929 
L 373.858525 183.900186 
L 373.90693 184.179237 
L 373.955335 183.893031 
L 374.00374 183.789281 
L 374.052145 183.957428 
L 374.197359 183.846522 
L 374.294169 184.100531 
L 374.390978 183.764239 
L 374.584598 183.842945 
L 374.729812 184.025401 
L 374.923431 183.914497 
L 374.971836 184.075487 
L 375.020241 184.025401 
L 375.262265 183.792426 
L 375.31067 183.865721 
L 375.359075 183.829074 
L 375.40748 183.924358 
L 375.647487 183.913363 
L 375.744296 184.052624 
L 375.889511 184.089272 
L 376.08313 184.573021 
L 376.228345 184.653647 
L 376.276749 184.51805 
L 376.325154 184.543704 
L 376.373559 185.038447 
L 376.615583 185.042112 
L 377.051227 184.59501 
L 377.244846 184.642652 
L 377.341655 184.547368 
L 377.58368 184.946828 
L 377.777299 184.660976 
L 377.922513 184.554698 
L 378.116133 184.972481 
L 378.406561 184.92484 
L 378.454966 185.056771 
L 378.600181 185.023789 
L 378.69699 184.635323 
L 378.745395 184.726942 
L 378.7938 184.715948 
L 379.035824 185.07876 
L 379.374658 184.873533 
L 379.423063 184.734272 
L 379.471467 184.983476 
L 379.713492 184.294499 
L 379.810301 184.349471 
L 380.052325 184.417208 
L 380.149135 184.872554 
L 380.294349 184.424734 
L 380.439564 183.724782 
L 380.633183 183.87531 
L 380.778398 184.183891 
L 380.826802 184.033363 
L 381.117231 184.375813 
L 381.310851 183.815099 
L 381.359255 183.830151 
L 381.456065 184.12368 
L 381.50447 184.033363 
L 381.698089 183.965626 
L 381.794899 184.187654 
L 381.843304 184.063469 
L 382.036923 184.037126 
L 382.133733 184.213996 
L 382.182137 184.063469 
L 382.375757 184.134969 
L 382.424161 184.247865 
L 382.472566 184.176364 
L 383.150234 183.826388 
L 383.198639 183.965626 
L 383.343853 183.879073 
L 383.489067 183.284489 
L 383.537472 183.367279 
L 383.682687 183.476412 
L 383.827901 184.409682 
L 383.876306 184.552683 
L 384.069925 184.718263 
L 384.360354 183.593071 
L 384.408759 183.653281 
L 384.457164 183.589307 
L 384.553973 183.288253 
L 384.699188 183.24048 
L 384.747593 183.352139 
L 384.795998 183.321337 
L 384.892807 183.340588 
L 385.038022 183.352139 
L 385.183236 183.637063 
L 385.570475 183.964341 
L 385.860904 183.979743 
L 385.909308 183.937389 
L 386.102928 183.910436 
L 386.199737 183.783376 
L 386.248142 183.94894 
L 386.441761 183.902736 
L 386.490166 183.783376 
L 386.538571 183.852682 
L 386.73219 184.345524 
L 386.92581 183.737172 
L 387.073041 183.687118 
L 387.218255 183.937389 
L 387.46028 184.322422 
L 387.508684 184.249266 
L 387.557089 184.684353 
L 387.605494 184.672802 
L 387.847518 184.873019 
L 387.944328 184.399429 
L 388.137947 184.133756 
L 388.234757 183.879634 
L 388.283161 184.672802 
L 388.476781 184.287769 
L 388.621995 184.457184 
L 388.815614 184.387327 
L 388.960829 184.64871 
L 389.299663 184.76752 
L 389.541687 185.032863 
L 389.590092 184.826925 
L 389.638496 184.838806 
L 389.88052 184.743758 
L 390.219354 183.401203 
L 390.267759 183.440807 
L 390.461378 183.401203 
L 390.606593 183.539815 
L 390.654998 183.329917 
L 390.848617 183.413084 
L 390.897022 183.611101 
L 390.945427 183.543775 
L 390.993831 183.353679 
L 391.139046 183.440806 
L 391.28426 185.250681 
L 391.332665 185.195236 
L 391.526284 185.175435 
L 391.574689 185.072466 
L 391.623094 185.159594 
L 392.494381 185.167514 
L 392.688 184.969497 
L 392.833214 185.00514 
L 392.881619 184.89029 
L 392.930024 185.056625 
L 392.978429 185.096228 
L 393.026834 185.290285 
L 393.170031 185.325928 
L 393.315246 185.043265 
L 393.363651 185.174296 
L 393.605675 185.18658 
L 393.65408 185.387221 
L 393.702484 185.313516 
L 394.186533 185.460926 
L 394.234937 185.428168 
L 394.283342 186.046469 
L 394.331747 185.686135 
L 394.380152 185.596051 
L 394.622176 185.628809 
L 394.670581 185.587862 
L 394.718986 185.665661 
L 395.009414 186.046469 
L 395.299843 186.03009 
L 395.396653 186.017806 
L 395.638677 186.128363 
L 395.687082 186.189784 
L 395.735487 186.066942 
L 395.977511 186.091511 
L 396.219535 186.263488 
L 396.316345 186.218447 
L 396.364749 186.095606 
L 396.413154 186.1775 
L 396.558369 186.210257 
L 396.751988 186.51736 
L 396.994012 186.509171 
L 397.090822 186.615633 
L 397.284441 186.570592 
L 397.381251 187.635215 
L 397.429655 187.573795 
L 397.962108 187.336302 
L 398.058918 187.356775 
L 398.300942 187.487806 
L 398.446157 187.410006 
L 399.027014 187.483711 
L 399.123824 187.684352 
L 399.365848 187.77853 
L 399.462658 187.946413 
L 399.656277 187.975076 
L 399.946706 188.028307 
L 400.09192 188.028307 
L 400.28554 188.151149 
L 400.624373 188.208475 
L 400.817993 188.3436 
L 401.060017 188.241232 
L 401.108422 188.048781 
L 401.156827 188.102012 
L 401.398851 188.159338 
L 401.49566 187.930034 
L 401.737684 188.085633 
L 401.786089 188.003739 
L 402.028113 187.680257 
L 402.076518 187.958697 
L 402.124923 187.790814 
L 402.173328 187.782625 
L 402.415352 187.901372 
L 402.463757 187.774436 
L 402.512161 187.794909 
L 402.657376 187.758057 
L 402.80259 187.549227 
L 403.093019 187.401817 
L 403.141424 187.504185 
L 403.189829 187.450954 
L 403.431853 187.524658 
L 403.480258 187.618837 
L 403.528663 187.5697 
L 403.770687 187.389533 
L 403.867496 187.205271 
L 404.061116 187.246218 
L 404.157925 187.01282 
L 404.20633 187.086525 
L 404.399949 187.131566 
L 404.545164 187.442764 
L 404.886014 187.147945 
L 405.708896 187.352681 
L 405.902516 187.08243 
L 406.04773 187.074241 
L 406.096135 187.201177 
L 406.14454 187.147945 
L 406.386564 186.951399 
L 406.483373 187.524658 
L 406.580183 187.434575 
L 406.773802 187.422291 
L 406.870612 187.131566 
L 406.919017 187.192987 
L 407.064231 187.197082 
L 407.209446 187.434575 
L 407.257851 187.455048 
L 407.596684 187.131566 
L 407.838708 187.426385 
L 407.887113 187.29126 
L 407.935518 187.397722 
L 408.080733 187.450954 
L 408.225947 187.78672 
L 408.274352 187.799004 
L 408.613186 187.774436 
L 408.952019 188.073349 
L 409.145639 188.024213 
L 409.290853 187.991455 
L 409.484472 188.044686 
L 409.629687 187.991455 
L 410.210545 188.208475 
L 410.258949 188.351789 
L 410.307354 188.306748 
L 410.646188 188.102012 
L 410.789386 188.20438 
L 410.886195 187.979171 
L 410.9346 188.159338 
L 410.983005 187.983266 
L 411.128219 188.06516 
L 411.176624 187.872708 
L 411.225029 187.99555 
L 411.273434 188.155243 
L 411.321839 188.003739 
L 411.467053 188.208475 
L 411.660672 187.651594 
L 412.14472 188.503294 
L 412.289935 188.200285 
L 412.483554 187.934129 
L 412.580364 187.356775 
L 412.628769 187.57789 
L 412.677173 187.536943 
L 412.822388 187.688447 
L 412.870793 187.532848 
L 412.919198 187.5697 
L 413.016007 187.71711 
L 413.161222 187.688447 
L 413.209627 187.250313 
L 413.306436 187.270787 
L 413.354841 187.36087 
L 413.500055 187.283071 
L 413.64527 187.696636 
L 413.693675 187.676163 
L 413.887294 187.71711 
L 414.032508 188.016023 
L 414.322937 187.852235 
L 414.710176 187.901372 
L 414.9522 187.938224 
L 415.000605 187.85633 
L 415.04901 187.91775 
L 415.194224 187.921845 
L 415.242629 187.627026 
L 415.291034 187.71711 
L 415.533058 187.831761 
L 415.581463 187.6475 
L 415.629867 187.815383 
L 415.920296 187.6475 
L 416.307535 187.909561 
L 416.35594 187.835856 
L 416.743178 187.954603 
L 416.936798 187.946413 
L 417.275631 188.077444 
L 417.420846 188.011929 
L 417.953299 187.983266 
L 418.050108 187.790814 
L 418.098513 187.876803 
L 418.243728 187.954603 
L 418.292133 187.860424 
L 418.437347 187.790814 
L 418.679371 187.70892 
L 418.776181 187.790814 
L 419.018205 187.63931 
L 419.260229 187.311734 
L 419.405443 186.44775 
L 419.647467 186.582876 
L 419.695872 186.414993 
L 419.792682 187.111093 
L 420.034706 186.7958 
L 420.131516 185.907249 
L 420.27673 185.845828 
L 420.37354 185.33399 
L 420.470349 185.911344 
L 420.712373 185.477305 
L 420.760778 185.54282 
L 420.809183 185.833544 
L 421.099612 185.768029 
L 421.148017 184.42087 
L 421.293231 184.899951 
L 421.341636 184.871288 
L 421.486851 184.035967 
L 421.632065 184.171093 
L 421.825684 183.511845 
L 421.970899 183.560981 
L 422.164518 184.90814 
L 422.360154 185.272569 
L 422.408559 184.859004 
L 422.505369 184.957277 
L 422.650583 184.449533 
L 422.747393 184.965466 
L 422.795798 184.867193 
L 422.844202 185.022792 
L 422.989417 185.104686 
L 423.183036 184.535522 
L 423.328251 184.392207 
L 423.52187 183.413572 
L 423.667084 182.234296 
L 423.715489 182.668335 
L 423.763894 183.245689 
L 423.812299 182.926302 
L 423.860704 183.000007 
L 424.005918 182.713377 
L 424.054323 182.971343 
L 424.151133 184.302124 
L 424.199537 183.978642 
L 424.393157 184.441344 
L 424.538371 183.212931 
L 424.683586 183.200647 
L 424.73199 183.032764 
L 424.8288 181.071399 
L 425.022419 180.948558 
L 425.458063 182.574157 
L 425.506467 182.111455 
L 425.554872 182.230201 
L 425.796896 181.312987 
L 425.893706 173.91385 
L 426.087325 172.66087 
L 426.13573 174.372458 
L 426.184135 173.610842 
L 426.23254 172.23502 
L 426.377754 150.066272 
L 426.426159 153.41165 
L 426.571373 34.19424 
L 426.716588 60.052316 
L 426.861802 152.33474 
L 426.910207 167.546579 
L 427.055422 160.0246 
L 427.200636 169.196748 
L 427.44266 168.11165 
L 427.587875 172.771427 
L 427.733089 170.556191 
L 427.781494 171.260479 
L 427.829899 171.371036 
L 427.878304 120.244518 
L 427.926708 141.577944 
L 428.071923 146.868306 
L 428.265542 137.192513 
L 428.410757 126.251454 
L 428.604376 77.06992 
L 428.747573 76.038058 
L 428.795978 106.486298 
L 428.892788 102.047637 
L 428.941193 109.528669 
L 429.086407 105.626413 
L 429.134812 108.803904 
L 429.231622 139.108836 
L 429.280027 108.730202 
L 429.425241 115.662539 
L 429.473646 112.898612 
L 429.522051 108.803904 
L 429.570455 110.499113 
L 429.764075 119.654879 
L 429.909289 113.561952 
L 430.151313 131.578666 
L 430.199718 130.886659 
L 430.248123 122.930646 
L 430.296528 125.796941 
L 430.441742 119.327302 
L 430.635361 128.663236 
L 430.780576 127.852486 
L 430.828981 114.51602 
L 430.92579 117.378223 
L 430.974195 118.016996 
L 431.11941 116.997412 
L 431.167814 124.568529 
L 431.264624 123.806913 
L 431.313029 124.114016 
L 431.458243 123.622652 
L 431.506648 133.576885 
L 431.555053 130.014491 
L 431.603458 129.30201 
L 431.651863 124.159058 
L 431.797077 124.220476 
L 431.845482 118.205356 
L 431.942292 119.740871 
L 431.990696 119.654879 
L 432.184316 115.560172 
L 432.32953 81.995853 
L 432.523149 94.071148 
L 432.619959 80.873907 
L 432.668364 84.84168 
L 432.813578 84.030923 
L 432.910388 65.555604 
L 432.958793 74.203625 
L 433.007198 98.628553 
L 433.152412 92.834544 
L 433.249222 101.539891 
L 433.297627 97.952929 
L 433.491246 100.839699 
L 433.539651 100.520312 
L 433.588055 98.997081 
L 433.63646 99.115824 
L 433.684865 102.047637 
L 433.83008 103.173681 
L 433.878484 102.215521 
L 434.023699 105.814766 
L 434.217318 106.142344 
L 434.314128 116.039252 
L 434.362533 111.514599 
L 434.507747 111.293487 
L 434.604557 115.769 
L 434.652961 124.159058 
L 434.701366 120.002932 
L 434.846581 122.807803 
L 434.94339 112.779868 
L 434.991795 113.799446 
L 435.0402 115.560172 
L 435.185414 115.822233 
L 435.233819 114.74123 
L 435.379034 122.111704 
L 435.524248 123.340116 
L 435.669463 129.072707 
L 435.717867 126.374296 
L 435.863082 127.516717 
L 435.911487 123.602177 
L 436.008296 124.208192 
L 436.201916 123.749587 
L 436.25032 123.671787 
L 436.298725 122.828278 
L 436.395535 126.697775 
L 436.589154 121.583489 
L 436.734369 104.627304 
L 436.879583 105.732873 
L 436.976393 97.952929 
L 437.024798 102.104962 
L 437.315227 107.018611 
L 437.363631 115.932792 
L 437.412036 108.431284 
L 437.557251 110.33942 
L 437.75087 104.49627 
L 438.234918 113.545576 
L 438.283323 112.693876 
L 438.380133 118.016996 
L 438.428537 116.215328 
L 438.573752 117.628 
L 438.670561 120.039783 
L 438.718966 119.245409 
L 438.912586 118.835938 
L 439.0578 114.430035 
L 439.106205 114.33176 
L 439.251419 114.765798 
L 439.299824 112.288498 
L 439.348229 113.377692 
L 439.396634 114.041033 
L 439.590253 120.301844 
L 439.783872 114.819031 
L 439.929087 114.933682 
L 440.074301 98.771871 
L 440.122706 99.328751 
L 440.269937 102.661843 
L 440.318342 98.771871 
L 440.415152 107.780227 
L 440.463557 106.90396 
L 440.608771 106.19967 
L 440.753986 103.583152 
L 440.80239 104.037665 
L 440.99601 89.829031 
L 441.141224 104.471703 
L 441.383248 108.025912 
L 441.480058 115.560172 
L 441.625272 121.702233 
L 441.722082 117.361841 
L 441.818892 124.228667 
L 441.964106 124.023932 
L 442.012511 136.03371 
L 442.060916 129.293818 
L 442.10932 127.054019 
L 442.157725 130.812958 
L 442.399749 124.842873 
L 442.448154 126.615882 
L 442.641773 127.434824 
L 442.690178 129.277442 
L 442.738583 129.134125 
L 442.835393 126.771483 
L 442.980607 128.56906 
L 443.029012 127.365215 
L 443.077417 128.913014 
L 443.125822 135.280285 
L 443.174227 124.253234 
L 443.51306 140.476467 
L 443.803489 145.492484 
L 443.851894 148.317833 
L 444.045513 149.988474 
L 444.142323 147.032095 
L 444.190728 150.610868 
L 444.335942 149.599475 
L 444.384347 143.400088 
L 444.432752 144.489282 
L 444.529561 149.132679 
L 444.674776 147.502987 
L 444.723181 148.006634 
L 444.868395 139.522399 
L 445.01361 139.338139 
L 445.062014 140.144797 
L 445.158824 137.765773 
L 445.207229 138.818112 
L 445.400848 141.274937 
L 445.449253 140.038334 
L 445.497658 146.462931 
L 445.546063 139.076078 
L 445.691277 140.128418 
L 445.739682 139.641146 
L 445.836492 139.325855 
L 445.884896 141.352734 
L 446.030111 142.585242 
L 446.078516 148.305549 
L 446.175325 147.122179 
L 446.22373 147.63811 
L 446.366928 151.417526 
L 446.415333 156.056831 
L 446.512142 154.828419 
L 446.560547 157.023182 
L 446.754166 150.610868 
L 446.899381 132.332097 
L 447.044595 127.443015 
L 447.093 112.595601 
L 447.141405 118.016996 
L 447.18981 122.889696 
L 447.238214 112.325355 
L 447.577048 128.626385 
L 447.722263 131.103685 
L 447.867477 128.552677 
L 448.061096 128.253765 
L 448.109501 131.181479 
L 448.157906 127.434824 
L 448.206311 128.253765 
L 448.39993 134.227942 
L 448.448335 134.133766 
L 448.49674 137.561037 
L 448.593549 137.548751 
L 448.738764 139.043319 
L 448.787169 141.160283 
L 448.835573 140.861371 
L 448.883978 138.924573 
L 449.222812 155.671927 
L 449.271217 149.136774 
L 449.416431 149.218667 
L 449.561646 152.322456 
L 449.610051 148.805104 
L 449.80367 151.163653 
L 449.852075 152.764686 
L 449.948884 131.939002 
L 450.142504 133.490894 
L 450.239313 140.947359 
L 450.287718 136.443181 
L 450.432933 134.272984 
L 450.481337 136.443181 
L 450.529742 131.779309 
L 450.578147 132.843935 
L 450.626552 138.081064 
L 450.820171 141.532902 
L 450.965386 137.728919 
L 451.304219 131.120061 
L 451.497839 136.029617 
L 451.594648 140.795854 
L 451.643053 140.075188 
L 451.836672 139.923682 
L 451.885077 140.255353 
L 451.981887 137.810812 
L 452.127101 137.03282 
L 452.51434 128.360226 
L 452.611149 124.273709 
L 452.659554 129.269251 
L 452.804769 132.348473 
L 452.853173 135.837166 
L 452.949983 134.985466 
L 452.998388 134.510478 
L 453.143602 134.313934 
L 453.288817 126.877943 
L 453.337222 128.466692 
L 453.530841 120.653989 
L 453.579246 120.883292 
L 453.676055 124.159058 
L 453.82127 124.568529 
L 453.869675 125.518504 
L 453.91808 120.588472 
L 453.966484 125.354712 
L 454.014889 132.053654 
L 454.160104 133.47861 
L 454.208508 132.839837 
L 454.498937 139.751705 
L 454.547342 137.884516 
L 454.644152 143.813654 
L 454.692557 143.387804 
L 454.934581 149.169533 
L 454.982986 148.727304 
L 455.176605 142.126634 
L 455.22501 144.796385 
L 455.321819 144.042957 
L 455.370224 143.273153 
L 455.515439 143.256774 
L 455.563843 141.717163 
L 455.709058 150.119505 
L 455.854272 149.284184 
L 455.999487 145.320507 
L 456.047892 148.678166 
L 456.193106 148.498001 
L 456.289916 145.82825 
L 456.33832 146.614433 
L 456.580345 148.940227 
L 456.628749 147.154937 
L 456.677154 149.677276 
L 456.725559 147.466133 
L 456.870773 148.121285 
L 456.919178 145.287749 
L 456.967583 147.089421 
L 457.064393 150.119505 
L 457.209607 148.727304 
L 457.258012 149.022123 
L 457.548441 138.539672 
L 457.693655 147.089421 
L 457.74206 146.10669 
L 457.889292 146.67995 
L 457.986101 149.464352 
L 458.034506 149.349698 
L 458.082911 149.087637 
L 458.324935 146.073932 
L 458.37334 146.598057 
L 458.421745 143.551593 
L 458.615364 148.51438 
L 458.663769 147.220451 
L 458.760578 146.270479 
L 458.954198 147.777332 
L 459.244627 144.943795 
L 459.389841 153.640953 
L 459.438246 149.398835 
L 459.58346 152.55995 
L 459.631865 151.102235 
L 459.77708 156.130536 
L 459.922294 156.015884 
L 459.970699 157.146021 
L 460.019104 156.261566 
L 460.067508 156.097777 
L 460.115913 156.916719 
L 460.309533 157.064129 
L 460.454747 160.274378 
L 460.648366 159.144241 
L 460.793581 163.468251 
L 460.938795 162.403628 
L 460.9872 162.976887 
L 461.132414 157.113266 
L 461.326034 156.114157 
L 461.374439 153.624574 
L 461.422843 156.196049 
L 461.471248 158.472709 
L 461.616463 157.73566 
L 461.664867 154.787472 
L 461.713272 155.950368 
L 461.761677 155.917609 
L 461.810082 157.244297 
L 461.955296 152.822011 
L 462.003701 154.607304 
L 462.052106 154.476273 
L 462.100511 152.920283 
L 462.148916 153.624574 
L 462.29413 153.8375 
L 462.342535 152.00307 
L 462.487749 157.637388 
L 462.681369 158.046859 
L 462.826583 154.836607 
L 463.020202 154.738335 
L 463.165417 157.391706 
L 463.310631 157.555492 
L 463.455846 159.946803 
L 463.504251 159.881286 
L 463.69787 159.308027 
L 463.843084 160.962289 
L 463.986282 162.20708 
L 464.034687 161.22435 
L 464.131496 163.468251 
L 464.179901 162.452762 
L 464.325116 162.403628 
L 464.37352 161.584686 
L 464.421925 146.10669 
L 464.47033 152.70736 
L 464.518735 153.116831 
L 464.663949 150.381566 
L 464.809164 152.658222 
L 464.857569 153.067693 
L 465.002783 152.101342 
L 465.051188 152.41254 
L 465.147998 153.640953 
L 465.341617 153.886635 
L 465.438427 152.166859 
L 465.486831 152.822011 
L 465.535236 152.42892 
L 465.728855 153.41165 
L 465.87407 156.589141 
L 466.019284 156.671037 
L 466.164499 158.964073 
L 466.212904 158.685632 
L 466.358118 158.292541 
L 466.406523 159.455436 
L 466.454928 159.275271 
L 466.696952 156.163294 
L 466.745357 156.654658 
L 466.793761 156.17967 
L 466.890571 155.557276 
L 467.035786 155.90123 
L 467.229405 152.101342 
L 467.374619 153.477164 
L 467.423024 150.545355 
L 467.519834 151.184128 
L 467.761858 151.42981 
L 467.810263 149.529866 
L 467.907072 149.890199 
L 468.052287 149.497108 
L 468.100692 150.348807 
L 468.149096 146.761843 
L 468.197501 156.425355 
L 468.245906 154.001286 
L 468.39112 152.248752 
L 468.48793 145.910146 
L 468.536335 148.055772 
L 468.58474 148.694545 
L 468.778359 149.693655 
L 468.826764 148.989365 
L 468.923573 150.72552 
L 469.117193 151.528082 
L 469.165598 151.2824 
L 469.262407 148.776441 
L 469.407622 149.890199 
L 469.504431 149.316942 
L 469.601241 152.052207 
L 469.746455 152.641843 
L 469.843265 149.955716 
L 469.89167 151.118611 
L 469.940075 151.200507 
L 470.133694 152.461678 
L 470.182099 151.315159 
L 470.230504 151.98669 
L 470.278908 151.921177 
L 470.424123 152.953042 
L 470.472528 151.839281 
L 470.569337 152.101342 
L 470.617742 153.608194 
L 470.811361 153.722846 
L 470.908171 155.475383 
L 470.956576 155.360729 
L 471.10179 155.442625 
L 471.440624 157.32619 
L 471.489029 157.293431 
L 471.634243 159.897666 
L 471.779458 159.701121 
L 471.827863 159.176996 
L 471.973077 162.64931 
L 472.311911 159.111482 
L 472.50553 159.455436 
L 472.60234 158.341678 
L 472.650745 159.946803 
L 472.844364 160.962289 
L 472.892769 161.322625 
L 472.989578 159.602846 
L 473.183198 160.864017 
L 473.231602 160.798503 
L 473.328412 161.535549 
L 473.473627 161.830368 
L 473.522031 161.207974 
L 473.570436 162.043291 
L 473.618841 160.159727 
L 473.667246 161.748475 
L 473.81246 162.976887 
L 473.957675 165.597499 
L 474.00608 165.777666 
L 474.151294 165.482846 
L 474.248104 163.451872 
L 474.296508 163.844963 
L 474.344913 165.237165 
L 474.490128 165.417331 
L 474.683747 168.087081 
L 474.828961 167.923293 
L 474.925771 166.727638 
L 474.974176 167.186246 
L 475.2162 168.627582 
L 475.361414 166.907806 
L 475.508646 166.760396 
L 475.702265 168.693097 
L 475.84748 169.200842 
L 475.944289 168.136218 
L 475.992694 168.152596 
L 476.041099 169.168083 
L 476.186313 168.3819 
L 476.379933 169.659449 
L 476.525147 169.724964 
L 476.573552 170.183572 
L 476.670361 162.993263 
L 476.718766 165.892317 
L 476.863981 164.631148 
L 476.912386 162.698447 
L 476.96079 164.516497 
L 477.009195 167.219003 
L 477.0576 163.746691 
L 477.251219 164.909588 
L 477.299624 164.745799 
L 477.396434 161.175215 
L 477.541648 161.437276 
L 477.590053 160.372653 
L 477.638458 160.962289 
L 477.735267 162.190701 
L 477.928887 161.863126 
L 478.025696 160.110592 
L 478.074101 160.126968 
L 478.26772 161.420897 
L 478.412935 163.20619 
L 478.606554 164.139783 
L 478.654959 164.909588 
L 478.703364 164.041511 
L 478.993793 166.973321 
L 479.090602 166.15438 
L 479.235817 165.925076 
L 479.284222 165.106134 
L 479.381031 166.793153 
L 479.429436 166.023349 
L 479.623055 165.85956 
L 479.76827 166.498335 
L 479.913484 165.925076 
L 479.961889 167.39917 
L 480.010294 166.547471 
L 480.058699 166.727638 
L 480.107104 166.138001 
L 480.252318 165.794045 
L 480.300723 166.416441 
L 480.349128 166.203516 
L 480.397533 165.85956 
L 480.445937 165.990591 
L 480.639557 166.809532 
L 480.784771 167.890535 
L 480.929986 167.874156 
L 481.0752 166.187137 
L 481.123605 166.449198 
L 481.462439 164.450982 
L 481.654041 166.170757 
L 481.702446 165.613879 
L 481.750851 165.43371 
L 482.04128 167.612095 
L 482.089684 167.464685 
L 482.138089 167.137109 
L 482.283304 167.693989 
L 482.331708 164.860452 
L 482.380113 168.300006 
L 482.428518 168.070703 
L 482.622137 168.987917 
L 482.718947 171.297332 
L 482.767352 170.838725 
L 482.815757 171.166301 
L 482.960971 171.166301 
L 483.009376 171.903348 
L 483.106186 171.805076 
L 483.15459 171.313711 
L 483.299805 171.968863 
L 483.34821 173.295549 
L 483.396614 172.574882 
L 483.493424 172.967973 
L 483.638639 172.624018 
L 483.687043 173.213655 
L 483.735448 173.033488 
L 483.977472 170.281844 
L 484.074282 171.60853 
L 484.122687 171.4775 
L 484.413116 163.386358 
L 484.46152 163.63204 
L 484.65514 146.53254 
L 484.703545 83.490419 
L 484.751949 123.651312 
L 484.993973 154.394377 
L 485.042378 153.247861 
L 485.090783 154.361622 
L 485.139188 154.623683 
L 485.187593 159.504574 
L 485.381212 151.839281 
L 485.429617 153.640953 
L 485.478022 155.246077 
L 485.526427 152.690981 
L 485.671641 123.847862 
L 485.720046 146.663571 
L 485.768451 146.598057 
L 485.86526 127.94257 
L 486.05888 149.710034 
L 486.155689 146.172207 
L 486.204094 141.799059 
L 486.349308 142.91282 
L 486.494523 149.955716 
L 486.542928 148.334212 
L 486.688142 151.57722 
L 486.736547 151.020339 
L 486.881761 148.694545 
L 487.075381 151.609978 
L 487.220595 150.070367 
L 487.36581 150.168639 
L 487.559429 147.482512 
L 487.704643 147.122179 
L 487.801453 143.158502 
L 487.849858 143.846413 
L 487.898263 147.826469 
L 488.043477 148.989365 
L 488.091882 148.36697 
L 488.140287 148.481622 
L 488.188692 151.036718 
L 488.237096 149.906578 
L 488.382311 149.988474 
L 488.721145 158.833042 
L 488.817954 155.033154 
L 488.866359 155.262457 
L 489.059978 153.673711 
L 489.108383 153.70647 
L 489.253598 153.034935 
L 489.398812 153.067693 
L 489.447217 152.822011 
L 489.495622 153.362513 
L 489.592431 153.231482 
L 489.737646 153.231482 
L 489.88286 156.097777 
L 490.124884 150.119505 
L 490.221694 153.640953 
L 490.270099 152.9858 
L 490.415313 151.609978 
L 490.463718 149.104016 
L 490.560528 156.146915 
L 490.608933 156.114157 
L 490.754147 156.17967 
L 490.947766 157.522737 
L 491.141386 152.641843 
L 491.238195 152.9858 
L 491.431814 153.149589 
L 491.480219 152.084963 
L 491.577029 154.689197 
L 491.625434 154.492653 
L 491.770648 154.705576 
L 491.915863 156.146915 
L 491.964267 155.835716 
L 492.109482 155.688307 
L 492.254696 154.459894 
L 492.448316 155.115047 
L 492.49672 155.90123 
L 492.59353 155.884854 
L 492.641935 155.852095 
L 492.787149 155.540897 
L 492.883959 151.347917 
L 492.932364 152.28151 
L 492.980769 152.9858 
L 493.128 153.313375 
L 493.128 153.313375 
" clip-path="url(#pcde736618d)" style="fill: none; stroke: #1f77b4; stroke-width: 1.5; stroke-linecap: square"/>
   </g>
   <g id="patch_3">
    <path d="M 71.28 196.34112 
L 71.28 26.47296 
" style="fill: none; stroke: #000000; stroke-width: 0.8; stroke-linejoin: miter; stroke-linecap: square"/>
   </g>
   <g id="patch_4">
    <path d="M 513.216 196.34112 
L 513.216 26.47296 
" style="fill: none; stroke: #000000; stroke-width: 0.8; stroke-linejoin: miter; stroke-linecap: square"/>
   </g>
   <g id="patch_5">
    <path d="M 71.28 196.34112 
L 513.216 196.34112 
" style="fill: none; stroke: #000000; stroke-width: 0.8; stroke-linejoin: miter; stroke-linecap: square"/>
   </g>
   <g id="patch_6">
    <path d="M 71.28 26.47296 
L 513.216 26.47296 
" style="fill: none; stroke: #000000; stroke-width: 0.8; stroke-linejoin: miter; stroke-linecap: square"/>
   </g>
  </g>
 </g>
 <defs>
  <clipPath id="pcde736618d">
   <rect x="71.28" y="26.47296" width="441.936" height="169.86816"/>
  </clipPath>
 </defs>
</svg>
